<svg xmlns="http://www.w3.org/2000/svg" xmlns:xlink="http://www.w3.org/1999/xlink" contentStyleType="text/css" data-diagram-type="SEQUENCE" height="1868px" preserveAspectRatio="none" style="width:1404px;height:1868px;background:#FFFFFF;" version="1.1" viewBox="0 0 1404 1868" width="1404px" zoomAndPan="magnify"><title>Ex&#233;cution d'un workflow documentaire</title><defs/><g><text fill="#000000" font-family="Verdana" font-size="22" font-weight="bold" lengthAdjust="spacing" textLength="432.6314" x="484.5125" y="38.5181">Ex&#233;cution d'un workflow documentaire</text><rect fill="#FFFFFF" height="289.4411" style="stroke:#000000;stroke-width:1;" width="963.676" x="248.7596" y="372.3729"/><rect fill="#FFFFFF" height="209.0647" style="stroke:none;stroke-width:1;" width="963.676" x="248.7596" y="452.7494"/><rect fill="#FFFFFF" height="885.6675" style="stroke:#000000;stroke-width:1;" width="1372.6565" x="15" y="720.1582"/><rect fill="#FFFFFF" height="260.097" style="stroke:none;stroke-width:1;" width="1372.6565" x="15" y="843.8787"/><rect fill="#FFFFFF" height="243.7529" style="stroke:none;stroke-width:1;" width="1372.6565" x="15" y="1103.9758"/><rect fill="#FFFFFF" height="258.097" style="stroke:none;stroke-width:1;" width="1372.6565" x="15" y="1347.7287"/><g><title>Initiateur</title><rect fill="#000000" fill-opacity="0.00000" height="1621.5498" width="8" x="72.2103" y="149.6523"/><line style="stroke:#000000;stroke-width:1;" x1="76" x2="76" y1="149.6523" y2="1771.2022"/></g><g><title>Orchestrateur</title><rect fill="#000000" fill-opacity="0.00000" height="1621.5498" width="8" x="331.676" y="149.6523"/><line style="stroke:#000000;stroke-width:1;" x1="334.7596" x2="334.7596" y1="149.6523" y2="1771.2022"/></g><g><title>G.n.rateur PDF</title><rect fill="#000000" fill-opacity="0.00000" height="1621.5498" width="8" x="657.3302" y="149.6523"/><line style="stroke:#000000;stroke-width:1;" x1="661.2219" x2="661.2219" y1="149.6523" y2="1771.2022"/></g><g><title>Moteur Acceptation</title><rect fill="#000000" fill-opacity="0.00000" height="1621.5498" width="8" x="847.0714" y="149.6523"/><line style="stroke:#000000;stroke-width:1;" x1="850.819" x2="850.819" y1="149.6523" y2="1771.2022"/></g><g><title>Archivage</title><rect fill="#000000" fill-opacity="0.00000" height="1621.5498" width="8" x="1098.893" y="149.6523"/><line style="stroke:#000000;stroke-width:1;" x1="1102.3504" x2="1102.3504" y1="149.6523" y2="1771.2022"/></g><g><title>Signataire</title><rect fill="#000000" fill-opacity="0.00000" height="1621.5498" width="8" x="1239.9838" y="149.6523"/><line style="stroke:#000000;stroke-width:1;" x1="1243.4356" x2="1243.4356" y1="149.6523" y2="1771.2022"/></g><g class="participant participant-head" data-participant="INIT"><text fill="#000000" font-family="Verdana" font-size="12" lengthAdjust="spacing" textLength="52.2124" x="47.1042" y="129.7922">Initiateur</text><text fill="#000000" font-family="Verdana" font-size="12" lengthAdjust="spacing" textLength="96.4207" x="25" y="146.1363">(Membre/Admin)</text><ellipse cx="76.2103" cy="64.9641" fill="#FFFFFF" rx="8" ry="8" style="stroke:#000000;stroke-width:1;"/><path d="M76.2103,72.9641 L76.2103,99.9641 M63.2103,80.9641 L89.2103,80.9641 M76.2103,99.9641 L63.2103,114.9641 M76.2103,99.9641 L89.2103,114.9641" fill="none" style="stroke:#000000;stroke-width:1;"/></g><g class="participant participant-tail" data-participant="INIT"><text fill="#000000" font-family="Verdana" font-size="12" lengthAdjust="spacing" textLength="52.2124" x="47.1042" y="1783.0302">Initiateur</text><text fill="#000000" font-family="Verdana" font-size="12" lengthAdjust="spacing" textLength="96.4207" x="25" y="1799.3744">(Membre/Admin)</text><ellipse cx="76.2103" cy="1811.8904" fill="#FFFFFF" rx="8" ry="8" style="stroke:#000000;stroke-width:1;"/><path d="M76.2103,1819.8904 L76.2103,1846.8904 M63.2103,1827.8904 L89.2103,1827.8904 M76.2103,1846.8904 L63.2103,1861.8904 M76.2103,1846.8904 L89.2103,1861.8904" fill="none" style="stroke:#000000;stroke-width:1;"/></g><g class="participant participant-head" data-participant="ORCH"><rect fill="#FFFFFF" height="46.6882" rx="2.5" ry="2.5" style="stroke:#000000;stroke-width:1;" width="133.8329" x="268.7596" y="101.9641"/><text fill="#000000" font-family="Verdana" font-size="12" lengthAdjust="spacing" textLength="79.5126" x="295.9197" y="121.7922">Orchestrateur</text><text fill="#000000" font-family="Verdana" font-size="12" lengthAdjust="spacing" textLength="119.8329" x="275.7596" y="138.1363">(DocumentWorkflow)</text></g><g class="participant participant-tail" data-participant="ORCH"><rect fill="#FFFFFF" height="46.6882" rx="2.5" ry="2.5" style="stroke:#000000;stroke-width:1;" width="133.8329" x="268.7596" y="1770.2022"/><text fill="#000000" font-family="Verdana" font-size="12" lengthAdjust="spacing" textLength="79.5126" x="295.9197" y="1790.0302">Orchestrateur</text><text fill="#000000" font-family="Verdana" font-size="12" lengthAdjust="spacing" textLength="119.8329" x="275.7596" y="1806.3744">(DocumentWorkflow)</text></g><g class="participant participant-head" data-participant="GEN"><rect fill="#FFFFFF" height="46.6882" rx="2.5" ry="2.5" style="stroke:#000000;stroke-width:1;" width="104.2166" x="609.2219" y="101.9641"/><text fill="#000000" font-family="Verdana" font-size="12" lengthAdjust="spacing" textLength="90.2166" x="616.2219" y="121.7922">G&#233;n&#233;rateur PDF</text><text fill="#000000" font-family="Verdana" font-size="12" lengthAdjust="spacing" textLength="89.3287" x="616.6659" y="138.1363">(Pdf_form_filler)</text></g><g class="participant participant-tail" data-participant="GEN"><rect fill="#FFFFFF" height="46.6882" rx="2.5" ry="2.5" style="stroke:#000000;stroke-width:1;" width="104.2166" x="609.2219" y="1770.2022"/><text fill="#000000" font-family="Verdana" font-size="12" lengthAdjust="spacing" textLength="90.2166" x="616.2219" y="1790.0302">G&#233;n&#233;rateur PDF</text><text fill="#000000" font-family="Verdana" font-size="12" lengthAdjust="spacing" textLength="89.3287" x="616.6659" y="1806.3744">(Pdf_form_filler)</text></g><g class="participant participant-head" data-participant="ACC"><rect fill="#FFFFFF" height="46.6882" rx="2.5" ry="2.5" style="stroke:#000000;stroke-width:1;" width="134.5049" x="783.819" y="101.9641"/><text fill="#000000" font-family="Verdana" font-size="12" lengthAdjust="spacing" textLength="111.2408" x="795.451" y="121.7922">Moteur Acceptation</text><text fill="#000000" font-family="Verdana" font-size="12" lengthAdjust="spacing" textLength="120.5049" x="790.819" y="138.1363">(Acceptations_model)</text></g><g class="participant participant-tail" data-participant="ACC"><rect fill="#FFFFFF" height="46.6882" rx="2.5" ry="2.5" style="stroke:#000000;stroke-width:1;" width="134.5049" x="783.819" y="1770.2022"/><text fill="#000000" font-family="Verdana" font-size="12" lengthAdjust="spacing" textLength="111.2408" x="795.451" y="1790.0302">Moteur Acceptation</text><text fill="#000000" font-family="Verdana" font-size="12" lengthAdjust="spacing" textLength="120.5049" x="790.819" y="1806.3744">(Acceptations_model)</text></g><g class="participant participant-head" data-participant="ARCH"><rect fill="#FFFFFF" height="46.6882" rx="2.5" ry="2.5" style="stroke:#000000;stroke-width:1;" width="179.0851" x="1013.3504" y="101.9641"/><text fill="#000000" font-family="Verdana" font-size="12" lengthAdjust="spacing" textLength="55.8724" x="1074.9568" y="121.7922">Archivage</text><text fill="#000000" font-family="Verdana" font-size="12" lengthAdjust="spacing" textLength="165.0851" x="1020.3504" y="138.1363">(archived_documents_model)</text></g><g class="participant participant-tail" data-participant="ARCH"><rect fill="#FFFFFF" height="46.6882" rx="2.5" ry="2.5" style="stroke:#000000;stroke-width:1;" width="179.0851" x="1013.3504" y="1770.2022"/><text fill="#000000" font-family="Verdana" font-size="12" lengthAdjust="spacing" textLength="55.8724" x="1074.9568" y="1790.0302">Archivage</text><text fill="#000000" font-family="Verdana" font-size="12" lengthAdjust="spacing" textLength="165.0851" x="1020.3504" y="1806.3744">(archived_documents_model)</text></g><g class="participant participant-head" data-participant="SIGN"><text fill="#000000" font-family="Verdana" font-size="12" lengthAdjust="spacing" textLength="57.0964" x="1212.4356" y="146.1363">Signataire</text><ellipse cx="1243.9838" cy="81.3082" fill="#FFFFFF" rx="8" ry="8" style="stroke:#000000;stroke-width:1;"/><path d="M1243.9838,89.3082 L1243.9838,116.3082 M1230.9838,97.3082 L1256.9838,97.3082 M1243.9838,116.3082 L1230.9838,131.3082 M1243.9838,116.3082 L1256.9838,131.3082" fill="none" style="stroke:#000000;stroke-width:1;"/></g><g class="participant participant-tail" data-participant="SIGN"><text fill="#000000" font-family="Verdana" font-size="12" lengthAdjust="spacing" textLength="57.0964" x="1212.4356" y="1783.0302">Signataire</text><ellipse cx="1243.9838" cy="1795.5463" fill="#FFFFFF" rx="8" ry="8" style="stroke:#000000;stroke-width:1;"/><path d="M1243.9838,1803.5463 L1243.9838,1830.5463 M1230.9838,1811.5463 L1256.9838,1811.5463 M1243.9838,1830.5463 L1230.9838,1845.5463 M1243.9838,1830.5463 L1256.9838,1845.5463" fill="none" style="stroke:#000000;stroke-width:1;"/></g><rect fill="#FFFFFF" height="3" style="stroke:#FFFFFF;stroke-width:1;" width="1392.6565" x="5" y="180.8244"/><line style="stroke:#000000;stroke-width:0.5;" x1="5" x2="1397.6565" y1="180.8244" y2="180.8244"/><line style="stroke:#000000;stroke-width:0.5;" x1="5" x2="1397.6565" y1="183.8244" y2="183.8244"/><rect fill="#FFFFFF" height="24.3441" style="stroke:#000000;stroke-width:1;" width="166.3771" x="618.1397" y="169.6523"/><text fill="#000000" font-family="Verdana" font-size="12" font-weight="bold" lengthAdjust="spacing" textLength="149.2571" x="624.1397" y="186.4804">Phase 1 : D&#233;clenchement</text><g class="message" data-participant-1="INIT" data-participant-2="ORCH"><polygon fill="#000000" points="323.676,222.3406,333.676,226.3406,323.676,230.3406,327.676,226.3406" style="stroke:#000000;stroke-width:1;"/><line style="stroke:#000000;stroke-width:1;" x1="76.2103" x2="329.676" y1="226.3406" y2="226.3406"/><text fill="#000000" font-family="Verdana" font-size="12" lengthAdjust="spacing" textLength="235.4657" x="83.2103" y="220.8245">execute(workflow_code, runtime_params)</text></g><g class="message" data-participant-1="ORCH" data-participant-2="ORCH"><line style="stroke:#000000;stroke-width:1;" x1="335.676" x2="377.676" y1="256.6847" y2="256.6847"/><line style="stroke:#000000;stroke-width:1;" x1="377.676" x2="377.676" y1="256.6847" y2="269.6847"/><line style="stroke:#000000;stroke-width:1;" x1="336.676" x2="377.676" y1="269.6847" y2="269.6847"/><polygon fill="#000000" points="346.676,265.6847,336.676,269.6847,346.676,273.6847,342.676,269.6847" style="stroke:#000000;stroke-width:1;"/><text fill="#000000" font-family="Verdana" font-size="12" lengthAdjust="spacing" textLength="168.0852" x="342.676" y="251.1686">charger la config du workflow</text></g><g class="message" data-participant-1="ORCH" data-participant-2="ORCH"><line style="stroke:#000000;stroke-width:1;" x1="335.676" x2="377.676" y1="300.0288" y2="300.0288"/><line style="stroke:#000000;stroke-width:1;" x1="377.676" x2="377.676" y1="300.0288" y2="313.0288"/><line style="stroke:#000000;stroke-width:1;" x1="336.676" x2="377.676" y1="313.0288" y2="313.0288"/><polygon fill="#000000" points="346.676,309.0288,336.676,313.0288,346.676,317.0288,342.676,313.0288" style="stroke:#000000;stroke-width:1;"/><text fill="#000000" font-family="Verdana" font-size="12" lengthAdjust="spacing" textLength="243.1217" x="342.676" y="294.5128">cr&#233;er workflow_execution (status=pending)</text></g><rect fill="#FFFFFF" height="3" style="stroke:#FFFFFF;stroke-width:1;" width="1392.6565" x="5" y="342.2008"/><line style="stroke:#000000;stroke-width:0.5;" x1="5" x2="1397.6565" y1="342.2008" y2="342.2008"/><line style="stroke:#000000;stroke-width:0.5;" x1="5" x2="1397.6565" y1="345.2008" y2="345.2008"/><rect fill="#FFFFFF" height="24.3441" style="stroke:#000000;stroke-width:1;" width="221.4935" x="590.5815" y="331.0288"/><text fill="#000000" font-family="Verdana" font-size="12" font-weight="bold" lengthAdjust="spacing" textLength="204.3734" x="596.5815" y="347.8569">Phase 2 : Production du document</text><path d="M248.7596,372.3729 L309.8757,372.3729 L309.8757,380.717 L299.8757,390.717 L248.7596,390.717 L248.7596,372.3729" fill="#FFFFFF" style="stroke:#000000;stroke-width:1;"/><rect fill="none" height="289.4411" style="stroke:#000000;stroke-width:1;" width="963.676" x="248.7596" y="372.3729"/><text fill="#000000" font-family="Verdana" font-size="12" font-weight="bold" lengthAdjust="spacing" textLength="16.1161" x="263.7596" y="386.201">alt</text><text fill="#000000" font-family="Verdana" font-size="12" font-weight="bold" lengthAdjust="spacing" textLength="150.9131" x="324.8757" y="387.201">[source_type = static_pdf]</text><g class="message" data-participant-1="ORCH" data-participant-2="ARCH"><polygon fill="#000000" points="1090.893,410.4052,1100.893,414.4052,1090.893,418.4052,1094.893,414.4052" style="stroke:#000000;stroke-width:1;"/><line style="stroke:#000000;stroke-width:1;" x1="335.676" x2="1096.893" y1="414.4052" y2="414.4052"/><text fill="#000000" font-family="Verdana" font-size="12" lengthAdjust="spacing" textLength="147.649" x="342.676" y="408.8892">get_document(source_ref)</text></g><g class="message" data-participant-1="ARCH" data-participant-2="ORCH"><polygon fill="#000000" points="346.676,440.7494,336.676,444.7494,346.676,448.7494,342.676,444.7494" style="stroke:#000000;stroke-width:1;"/><line style="stroke:#000000;stroke-width:1;stroke-dasharray:2,2;" x1="340.676" x2="1101.893" y1="444.7494" y2="444.7494"/><text fill="#000000" font-family="Verdana" font-size="12" lengthAdjust="spacing" textLength="133.8849" x="352.676" y="439.2333">chemin du PDF statique</text></g><line style="stroke:#000000;stroke-width:1;stroke-dasharray:2,2;" x1="248.7596" x2="1212.4356" y1="453.7494" y2="453.7494"/><text fill="#000000" font-family="Verdana" font-size="12" font-weight="bold" lengthAdjust="spacing" textLength="172.3452" x="253.7596" y="466.5774">[source_type = pdf_template]</text><g class="message" data-participant-1="ORCH" data-participant-2="GEN"><polygon fill="#000000" points="649.3302,489.4376,659.3302,493.4376,649.3302,497.4376,653.3302,493.4376" style="stroke:#000000;stroke-width:1;"/><line style="stroke:#000000;stroke-width:1;" x1="335.676" x2="655.3302" y1="493.4376" y2="493.4376"/><text fill="#000000" font-family="Verdana" font-size="12" lengthAdjust="spacing" textLength="141.349" x="342.676" y="487.9216">fill(template_id, contexts)</text></g><g class="message" data-participant-1="GEN" data-participant-2="GEN"><line style="stroke:#000000;stroke-width:1;" x1="661.3302" x2="703.3302" y1="523.7817" y2="523.7817"/><line style="stroke:#000000;stroke-width:1;" x1="703.3302" x2="703.3302" y1="523.7817" y2="536.7817"/><line style="stroke:#000000;stroke-width:1;" x1="662.3302" x2="703.3302" y1="536.7817" y2="536.7817"/><polygon fill="#000000" points="672.3302,532.7817,662.3302,536.7817,672.3302,540.7817,668.3302,536.7817" style="stroke:#000000;stroke-width:1;"/><text fill="#000000" font-family="Verdana" font-size="12" lengthAdjust="spacing" textLength="175.7412" x="668.3302" y="518.2657">collect_data(mapping, GVV_DB)</text></g><g class="message" data-participant-1="GEN" data-participant-2="GEN"><line style="stroke:#000000;stroke-width:1;" x1="661.3302" x2="703.3302" y1="567.1258" y2="567.1258"/><line style="stroke:#000000;stroke-width:1;" x1="703.3302" x2="703.3302" y1="567.1258" y2="580.1258"/><line style="stroke:#000000;stroke-width:1;" x1="662.3302" x2="703.3302" y1="580.1258" y2="580.1258"/><polygon fill="#000000" points="672.3302,576.1258,662.3302,580.1258,672.3302,584.1258,668.3302,580.1258" style="stroke:#000000;stroke-width:1;"/><text fill="#000000" font-family="Verdana" font-size="12" lengthAdjust="spacing" textLength="125.2569" x="668.3302" y="561.6098">appel pdf_forms.py fill</text></g><g class="message" data-participant-1="GEN" data-participant-2="ORCH"><polygon fill="#000000" points="346.676,606.4699,336.676,610.4699,346.676,614.4699,342.676,610.4699" style="stroke:#000000;stroke-width:1;"/><line style="stroke:#000000;stroke-width:1;stroke-dasharray:2,2;" x1="340.676" x2="660.3302" y1="610.4699" y2="610.4699"/><text fill="#000000" font-family="Verdana" font-size="12" lengthAdjust="spacing" textLength="184.0093" x="352.676" y="604.9539">PDF g&#233;n&#233;r&#233; (chemin temporaire)</text></g><g class="message" data-participant-1="ORCH" data-participant-2="ORCH"><line style="stroke:#000000;stroke-width:1;" x1="335.676" x2="377.676" y1="640.814" y2="640.814"/><line style="stroke:#000000;stroke-width:1;" x1="377.676" x2="377.676" y1="640.814" y2="653.814"/><line style="stroke:#000000;stroke-width:1;" x1="336.676" x2="377.676" y1="653.814" y2="653.814"/><polygon fill="#000000" points="346.676,649.814,336.676,653.814,346.676,657.814,342.676,653.814" style="stroke:#000000;stroke-width:1;"/><text fill="#000000" font-family="Verdana" font-size="12" lengthAdjust="spacing" textLength="208.2854" x="342.676" y="635.298">update execution (status=generated)</text></g><rect fill="#FFFFFF" height="3" style="stroke:#FFFFFF;stroke-width:1;" width="1392.6565" x="5" y="689.9861"/><line style="stroke:#000000;stroke-width:0.5;" x1="5" x2="1397.6565" y1="689.9861" y2="689.9861"/><line style="stroke:#000000;stroke-width:0.5;" x1="5" x2="1397.6565" y1="692.9861" y2="692.9861"/><rect fill="#FFFFFF" height="24.3441" style="stroke:#000000;stroke-width:1;" width="198.7293" x="601.9636" y="678.814"/><text fill="#000000" font-family="Verdana" font-size="12" font-weight="bold" lengthAdjust="spacing" textLength="181.6093" x="607.9636" y="695.6421">Phase 3 : Action documentaire</text><path d="M15,720.1582 L76.1161,720.1582 L76.1161,728.5023 L66.1161,738.5023 L15,738.5023 L15,720.1582" fill="#FFFFFF" style="stroke:#000000;stroke-width:1;"/><rect fill="none" height="885.6675" style="stroke:#000000;stroke-width:1;" width="1372.6565" x="15" y="720.1582"/><text fill="#000000" font-family="Verdana" font-size="12" font-weight="bold" lengthAdjust="spacing" textLength="16.1161" x="30" y="733.9862">alt</text><text fill="#000000" font-family="Verdana" font-size="12" font-weight="bold" lengthAdjust="spacing" textLength="175.6933" x="91.1161" y="734.9862">[action_type = generate_only]</text><g class="message" data-participant-1="ORCH" data-participant-2="ARCH"><polygon fill="#000000" points="1090.893,758.1905,1100.893,762.1905,1090.893,766.1905,1094.893,762.1905" style="stroke:#000000;stroke-width:1;"/><line style="stroke:#000000;stroke-width:1;" x1="335.676" x2="1096.893" y1="762.1905" y2="762.1905"/><text fill="#000000" font-family="Verdana" font-size="12" lengthAdjust="spacing" textLength="217.5495" x="342.676" y="756.6745">create_document(file, doc_type, entity)</text></g><g class="message" data-participant-1="ARCH" data-participant-2="ORCH"><polygon fill="#000000" points="346.676,788.5346,336.676,792.5346,346.676,796.5346,342.676,792.5346" style="stroke:#000000;stroke-width:1;"/><line style="stroke:#000000;stroke-width:1;stroke-dasharray:2,2;" x1="340.676" x2="1101.893" y1="792.5346" y2="792.5346"/><text fill="#000000" font-family="Verdana" font-size="12" lengthAdjust="spacing" textLength="73.3565" x="352.676" y="787.0186">document_id</text></g><g class="message" data-participant-1="ORCH" data-participant-2="ORCH"><line style="stroke:#000000;stroke-width:1;" x1="335.676" x2="377.676" y1="822.8787" y2="822.8787"/><line style="stroke:#000000;stroke-width:1;" x1="377.676" x2="377.676" y1="822.8787" y2="835.8787"/><line style="stroke:#000000;stroke-width:1;" x1="336.676" x2="377.676" y1="835.8787" y2="835.8787"/><polygon fill="#000000" points="346.676,831.8787,336.676,835.8787,346.676,839.8787,342.676,835.8787" style="stroke:#000000;stroke-width:1;"/><text fill="#000000" font-family="Verdana" font-size="12" lengthAdjust="spacing" textLength="197.9894" x="342.676" y="817.3627">update execution (status=archived)</text></g><line style="stroke:#000000;stroke-width:1;stroke-dasharray:2,2;" x1="15" x2="1387.6565" y1="844.8787" y2="844.8787"/><text fill="#000000" font-family="Verdana" font-size="12" font-weight="bold" lengthAdjust="spacing" textLength="182.7973" x="20" y="857.7068">[action_type = accept_internal]</text><g class="message" data-participant-1="ORCH" data-participant-2="ACC"><polygon fill="#000000" points="839.0714,880.567,849.0714,884.567,839.0714,888.567,843.0714,884.567" style="stroke:#000000;stroke-width:1;"/><line style="stroke:#000000;stroke-width:1;" x1="335.676" x2="845.0714" y1="884.567" y2="884.567"/><text fill="#000000" font-family="Verdana" font-size="12" lengthAdjust="spacing" textLength="180.3973" x="342.676" y="879.0509">create_or_get_item(item_config)</text></g><g class="message" data-participant-1="ACC" data-participant-2="ORCH"><polygon fill="#000000" points="346.676,910.9111,336.676,914.9111,346.676,918.9111,342.676,914.9111" style="stroke:#000000;stroke-width:1;"/><line style="stroke:#000000;stroke-width:1;stroke-dasharray:2,2;" x1="340.676" x2="850.0714" y1="914.9111" y2="914.9111"/><text fill="#000000" font-family="Verdana" font-size="12" lengthAdjust="spacing" textLength="41.2203" x="352.676" y="909.395">item_id</text></g><g class="message" data-participant-1="ORCH" data-participant-2="INIT"><polygon fill="#000000" points="87.2103,957.5993,77.2103,961.5993,87.2103,965.5993,83.2103,961.5993" style="stroke:#000000;stroke-width:1;"/><line style="stroke:#000000;stroke-width:1;stroke-dasharray:2,2;" x1="81.2103" x2="334.676" y1="961.5993" y2="961.5993"/><text fill="#000000" font-family="Verdana" font-size="12" lengthAdjust="spacing" textLength="218.1135" x="93.2103" y="939.7392">document disponible pour acceptation</text><text fill="#000000" font-family="Verdana" font-size="12" lengthAdjust="spacing" textLength="192.6374" x="93.2103" y="956.0833">(notifications aux membres cibl&#233;s)</text></g><g class="message" data-participant-1="SIGN" data-participant-2="ACC"><polygon fill="#000000" points="862.0714,987.9434,852.0714,991.9434,862.0714,995.9434,858.0714,991.9434" style="stroke:#000000;stroke-width:1;"/><line style="stroke:#000000;stroke-width:1;" x1="856.0714" x2="1242.9838" y1="991.9434" y2="991.9434"/><text fill="#000000" font-family="Verdana" font-size="12" lengthAdjust="spacing" textLength="184.6933" x="868.0714" y="986.4274">record_acceptance(item_id, click)</text></g><g class="message" data-participant-1="ACC" data-participant-2="ARCH"><polygon fill="#000000" points="1090.893,1018.2875,1100.893,1022.2875,1090.893,1026.2875,1094.893,1022.2875" style="stroke:#000000;stroke-width:1;"/><line style="stroke:#000000;stroke-width:1;" x1="851.0714" x2="1096.893" y1="1022.2875" y2="1022.2875"/><text fill="#000000" font-family="Verdana" font-size="12" lengthAdjust="spacing" textLength="214.1895" x="858.0714" y="1016.7715">archive le document + lier acceptation</text></g><g class="message" data-participant-1="ACC" data-participant-2="ORCH"><polygon fill="#000000" points="346.676,1048.6316,336.676,1052.6316,346.676,1056.6316,342.676,1052.6316" style="stroke:#000000;stroke-width:1;"/><line style="stroke:#000000;stroke-width:1;stroke-dasharray:2,2;" x1="340.676" x2="850.0714" y1="1052.6316" y2="1052.6316"/><text fill="#000000" font-family="Verdana" font-size="12" lengthAdjust="spacing" textLength="133.645" x="352.676" y="1047.1156">acceptation enregistr&#233;e</text></g><g class="message" data-participant-1="ORCH" data-participant-2="ORCH"><line style="stroke:#000000;stroke-width:1;" x1="335.676" x2="377.676" y1="1082.9758" y2="1082.9758"/><line style="stroke:#000000;stroke-width:1;" x1="377.676" x2="377.676" y1="1082.9758" y2="1095.9758"/><line style="stroke:#000000;stroke-width:1;" x1="336.676" x2="377.676" y1="1095.9758" y2="1095.9758"/><polygon fill="#000000" points="346.676,1091.9758,336.676,1095.9758,346.676,1099.9758,342.676,1095.9758" style="stroke:#000000;stroke-width:1;"/><text fill="#000000" font-family="Verdana" font-size="12" lengthAdjust="spacing" textLength="187.5733" x="342.676" y="1077.4597">update execution (status=signed)</text></g><line style="stroke:#000000;stroke-width:1;stroke-dasharray:2,2;" x1="15" x2="1387.6565" y1="1104.9758" y2="1104.9758"/><text fill="#000000" font-family="Verdana" font-size="12" font-weight="bold" lengthAdjust="spacing" textLength="170.9052" x="20" y="1117.8038">[action_type = sign_external]</text><g class="message" data-participant-1="ORCH" data-participant-2="ACC"><polygon fill="#000000" points="839.0714,1140.664,849.0714,1144.664,839.0714,1148.664,843.0714,1144.664" style="stroke:#000000;stroke-width:1;"/><line style="stroke:#000000;stroke-width:1;" x1="335.676" x2="845.0714" y1="1144.664" y2="1144.664"/><text fill="#000000" font-family="Verdana" font-size="12" lengthAdjust="spacing" textLength="220.4656" x="342.676" y="1139.148">create_session(item_id, mode, initiator)</text></g><g class="message" data-participant-1="ACC" data-participant-2="ORCH"><polygon fill="#000000" points="346.676,1171.0081,336.676,1175.0081,346.676,1179.0081,342.676,1175.0081" style="stroke:#000000;stroke-width:1;"/><line style="stroke:#000000;stroke-width:1;stroke-dasharray:2,2;" x1="340.676" x2="850.0714" y1="1175.0081" y2="1175.0081"/><text fill="#000000" font-family="Verdana" font-size="12" lengthAdjust="spacing" textLength="117.2529" x="352.676" y="1169.4921">token + lien/QR code</text></g><g class="message" data-participant-1="ORCH" data-participant-2="INIT"><polygon fill="#000000" points="87.2103,1201.3522,77.2103,1205.3522,87.2103,1209.3522,83.2103,1205.3522" style="stroke:#000000;stroke-width:1;"/><line style="stroke:#000000;stroke-width:1;stroke-dasharray:2,2;" x1="81.2103" x2="334.676" y1="1205.3522" y2="1205.3522"/><text fill="#000000" font-family="Verdana" font-size="12" lengthAdjust="spacing" textLength="158.7372" x="93.2103" y="1199.8362">lien / QR code &#224; transmettre</text></g><g class="message" data-participant-1="SIGN" data-participant-2="ACC"><polygon fill="#000000" points="862.0714,1231.6963,852.0714,1235.6963,862.0714,1239.6963,858.0714,1235.6963" style="stroke:#000000;stroke-width:1;"/><line style="stroke:#000000;stroke-width:1;" x1="856.0714" x2="1242.9838" y1="1235.6963" y2="1235.6963"/><text fill="#000000" font-family="Verdana" font-size="12" lengthAdjust="spacing" textLength="230.1616" x="868.0714" y="1230.1803">submit_signature(token, nom, signature)</text></g><g class="message" data-participant-1="ACC" data-participant-2="ARCH"><polygon fill="#000000" points="1090.893,1262.0404,1100.893,1266.0404,1090.893,1270.0404,1094.893,1266.0404" style="stroke:#000000;stroke-width:1;"/><line style="stroke:#000000;stroke-width:1;" x1="851.0714" x2="1096.893" y1="1266.0404" y2="1266.0404"/><text fill="#000000" font-family="Verdana" font-size="12" lengthAdjust="spacing" textLength="148.009" x="858.0714" y="1260.5244">archive le document sign&#233;</text></g><g class="message" data-participant-1="ACC" data-participant-2="ORCH"><polygon fill="#000000" points="346.676,1292.3846,336.676,1296.3846,346.676,1300.3846,342.676,1296.3846" style="stroke:#000000;stroke-width:1;"/><line style="stroke:#000000;stroke-width:1;stroke-dasharray:2,2;" x1="340.676" x2="850.0714" y1="1296.3846" y2="1296.3846"/><text fill="#000000" font-family="Verdana" font-size="12" lengthAdjust="spacing" textLength="121.9209" x="352.676" y="1290.8685">signature enregistr&#233;e</text></g><g class="message" data-participant-1="ORCH" data-participant-2="ORCH"><line style="stroke:#000000;stroke-width:1;" x1="335.676" x2="377.676" y1="1326.7287" y2="1326.7287"/><line style="stroke:#000000;stroke-width:1;" x1="377.676" x2="377.676" y1="1326.7287" y2="1339.7287"/><line style="stroke:#000000;stroke-width:1;" x1="336.676" x2="377.676" y1="1339.7287" y2="1339.7287"/><polygon fill="#000000" points="346.676,1335.7287,336.676,1339.7287,346.676,1343.7287,342.676,1339.7287" style="stroke:#000000;stroke-width:1;"/><text fill="#000000" font-family="Verdana" font-size="12" lengthAdjust="spacing" textLength="187.5733" x="342.676" y="1321.2126">update execution (status=signed)</text></g><line style="stroke:#000000;stroke-width:1;stroke-dasharray:2,2;" x1="15" x2="1387.6565" y1="1348.7287" y2="1348.7287"/><text fill="#000000" font-family="Verdana" font-size="12" font-weight="bold" lengthAdjust="spacing" textLength="161.5931" x="20" y="1361.5568">[action_type = sign_double]</text><g class="message" data-participant-1="ORCH" data-participant-2="ACC"><polygon fill="#000000" points="839.0714,1384.4169,849.0714,1388.4169,839.0714,1392.4169,843.0714,1388.4169" style="stroke:#000000;stroke-width:1;"/><line style="stroke:#000000;stroke-width:1;" x1="335.676" x2="845.0714" y1="1388.4169" y2="1388.4169"/><text fill="#000000" font-family="Verdana" font-size="12" lengthAdjust="spacing" textLength="203.4614" x="342.676" y="1382.9009">create_item(double_validation=true)</text></g><g class="message" data-participant-1="ACC" data-participant-2="ORCH"><polygon fill="#000000" points="346.676,1414.761,336.676,1418.761,346.676,1422.761,342.676,1418.761" style="stroke:#000000;stroke-width:1;"/><line style="stroke:#000000;stroke-width:1;stroke-dasharray:2,2;" x1="340.676" x2="850.0714" y1="1418.761" y2="1418.761"/><text fill="#000000" font-family="Verdana" font-size="12" lengthAdjust="spacing" textLength="41.2203" x="352.676" y="1413.245">item_id</text></g><g class="message" data-participant-1="INIT" data-participant-2="ACC"><polygon fill="#000000" points="839.0714,1456.2772,849.0714,1460.2772,839.0714,1464.2772,843.0714,1460.2772" style="stroke:#000000;stroke-width:1;"/><line style="stroke:#000000;stroke-width:1;" x1="76.2103" x2="845.0714" y1="1460.2772" y2="1460.2772"/><text fill="#000000" font-family="Verdana" font-size="12" lengthAdjust="spacing" textLength="185.7853" x="83.2103" y="1454.7612">record_acceptance(party=party1)</text></g><path d="M856,1431.761 L856,1473.761 L994,1473.761 L994,1441.761 L984,1431.761 L856,1431.761" fill="#FFFFFF" style="stroke:#000000;stroke-width:1;"/><path d="M984,1431.761 L984,1441.761 L994,1441.761 L984,1431.761" fill="#FFFFFF" style="stroke:#000000;stroke-width:1;"/><text fill="#000000" font-family="Verdana" font-size="12" lengthAdjust="spacing" textLength="117.9368" x="862" y="1449.5891">ex: instructeur valide</text><text fill="#000000" font-family="Verdana" font-size="12" lengthAdjust="spacing" textLength="71.0165" x="862" y="1465.9332">la d&#233;livrance</text><g class="message" data-participant-1="SIGN" data-participant-2="ACC"><polygon fill="#000000" points="862.0714,1508.9654,852.0714,1512.9654,862.0714,1516.9654,858.0714,1512.9654" style="stroke:#000000;stroke-width:1;"/><line style="stroke:#000000;stroke-width:1;" x1="856.0714" x2="1242.9838" y1="1512.9654" y2="1512.9654"/><text fill="#000000" font-family="Verdana" font-size="12" lengthAdjust="spacing" textLength="185.7853" x="868.0714" y="1507.4494">record_acceptance(party=party2)</text></g><path d="M1248,1484.4492 L1248,1526.4492 L1371,1526.4492 L1371,1494.4492 L1361,1484.4492 L1248,1484.4492" fill="#FFFFFF" style="stroke:#000000;stroke-width:1;"/><path d="M1361,1484.4492 L1361,1494.4492 L1371,1494.4492 L1361,1484.4492" fill="#FFFFFF" style="stroke:#000000;stroke-width:1;"/><text fill="#000000" font-family="Verdana" font-size="12" lengthAdjust="spacing" textLength="102.6727" x="1254" y="1502.2773">ex: &#233;l&#232;ve confirme</text><text fill="#000000" font-family="Verdana" font-size="12" lengthAdjust="spacing" textLength="66.6845" x="1254" y="1518.6214">la r&#233;ception</text><g class="message" data-participant-1="ACC" data-participant-2="ARCH"><polygon fill="#000000" points="1090.893,1550.4816,1100.893,1554.4816,1090.893,1558.4816,1094.893,1554.4816" style="stroke:#000000;stroke-width:1;"/><line style="stroke:#000000;stroke-width:1;" x1="851.0714" x2="1096.893" y1="1554.4816" y2="1554.4816"/><text fill="#000000" font-family="Verdana" font-size="12" lengthAdjust="spacing" textLength="227.8216" x="858.0714" y="1548.9656">archive quand les deux parties ont sign&#233;</text></g><g class="message" data-participant-1="ORCH" data-participant-2="ORCH"><line style="stroke:#000000;stroke-width:1;" x1="335.676" x2="377.676" y1="1584.8257" y2="1584.8257"/><line style="stroke:#000000;stroke-width:1;" x1="377.676" x2="377.676" y1="1584.8257" y2="1597.8257"/><line style="stroke:#000000;stroke-width:1;" x1="336.676" x2="377.676" y1="1597.8257" y2="1597.8257"/><polygon fill="#000000" points="346.676,1593.8257,336.676,1597.8257,346.676,1601.8257,342.676,1597.8257" style="stroke:#000000;stroke-width:1;"/><text fill="#000000" font-family="Verdana" font-size="12" lengthAdjust="spacing" textLength="187.5733" x="342.676" y="1579.3097">update execution (status=signed)</text></g><rect fill="#FFFFFF" height="3" style="stroke:#FFFFFF;stroke-width:1;" width="1392.6565" x="5" y="1633.9978"/><line style="stroke:#000000;stroke-width:0.5;" x1="5" x2="1397.6565" y1="1633.9978" y2="1633.9978"/><line style="stroke:#000000;stroke-width:0.5;" x1="5" x2="1397.6565" y1="1636.9978" y2="1636.9978"/><rect fill="#FFFFFF" height="24.3441" style="stroke:#000000;stroke-width:1;" width="142.5809" x="630.0378" y="1622.8257"/><text fill="#000000" font-family="Verdana" font-size="12" font-weight="bold" lengthAdjust="spacing" textLength="125.4608" x="636.0378" y="1639.6538">Phase 4 : Finalisation</text><g class="message" data-participant-1="ORCH" data-participant-2="ARCH"><polygon fill="#000000" points="1090.893,1675.5139,1100.893,1679.5139,1090.893,1683.5139,1094.893,1679.5139" style="stroke:#000000;stroke-width:1;"/><line style="stroke:#000000;stroke-width:1;" x1="335.676" x2="1096.893" y1="1679.5139" y2="1679.5139"/><text fill="#000000" font-family="Verdana" font-size="12" lengthAdjust="spacing" textLength="170.0652" x="342.676" y="1673.9979">link execution to archived_doc</text></g><g class="message" data-participant-1="ORCH" data-participant-2="ORCH"><line style="stroke:#000000;stroke-width:1;" x1="335.676" x2="377.676" y1="1709.858" y2="1709.858"/><line style="stroke:#000000;stroke-width:1;" x1="377.676" x2="377.676" y1="1709.858" y2="1722.858"/><line style="stroke:#000000;stroke-width:1;" x1="336.676" x2="377.676" y1="1722.858" y2="1722.858"/><polygon fill="#000000" points="346.676,1718.858,336.676,1722.858,346.676,1726.858,342.676,1722.858" style="stroke:#000000;stroke-width:1;"/><text fill="#000000" font-family="Verdana" font-size="12" lengthAdjust="spacing" textLength="311.6542" x="342.676" y="1704.342">update execution (status=archived, completed_at=now)</text></g><g class="message" data-participant-1="ORCH" data-participant-2="INIT"><polygon fill="#000000" points="87.2103,1749.2022,77.2103,1753.2022,87.2103,1757.2022,83.2103,1753.2022" style="stroke:#000000;stroke-width:1;"/><line style="stroke:#000000;stroke-width:1;stroke-dasharray:2,2;" x1="81.2103" x2="334.676" y1="1753.2022" y2="1753.2022"/><text fill="#000000" font-family="Verdana" font-size="12" lengthAdjust="spacing" textLength="130.5489" x="93.2103" y="1747.6861">r&#233;sultat (doc_id, status)</text></g><!--SRC=[jLPBRzj64BxpLqnzAOKgDUBs5805L3bsVOZZnaLwAK2iTqVKGijTPX-sbL_JO_Kx-CSokto8YkmWFlGYY9pND_FDWp_uDTO8ZM9IPsuZTSCig-6EyKrbJT1YQPInyB2M7YToWIiMbBymsj_ApmYlpxBCIwyGtZwsEnwyD1h4Zq73Wx6RbJ8F80mFDMhFfCKiOzoJsvChBRra7eFzH-VliBwpUBeGjTIp4s0Ehgwl_ieeefTSDanxE7bl-HgTjuFDUU_rxpvCP_V-m_AFGxlBTgVRNMS6D-SNP7eZLkNAsBfSIQNGTfQNRwyF3T-PPBBW71lFObvaEdboPMq4givwiLmUMYy8hhnd5P8HI_zHb4Cb3aqZvBugjxBIB1KgYMwlBg-ph2ZWPiqSrHhUm3aLMQ7caJoAKnHP5ci5htvBkPC6FYBHWFbG_v9Jh3dOeBsiiKmqkbcMjFTMVCriXHOK0sxqIbOWmaZXaR9jTwGxHkX2HkPpHyK9hcXG2wchsGJz6HdUM2C2xteaZ8sHic3AWpF1SYpzja4e8BgIl6p4AWCO42mw11NwiPfvRsPnDIFDfF5gcXbIMyLun7xdz5F031LXEWn8aKgFDOq4jVm-97K6kOczaW_IKefvh9F7H-zYqAWpgd93RSK9856Prwnfg19pkFpuiJp__KYPnAXIwDYIxkTccq8DQliy8lggQ-Ps1tcVLaHaREoOsGHoRn8QWe1mJ4-56kD8Y5b6H4r8-eMi5Zr1ax4T6M99DXHiS5CQhRR7976BKJZoH7bH8z9Zify3lPD- -nHdWmdL-GLP3ND6NPVOFGJBqkYMaaYpcgaftELoZzROCZONRRqwZpzbDmu99UbDG2Rf1219qYZkuOEGhZ5Qtj5wRAZLUWp3Cj76ovNatJO15XwXJelG0IUJTfSwA-w0FKYBt5XHzduqnxn7GUse9D-CC4SI-g80GHXX_GHAuW6Qu-mcGYBAOYLf-TBOlu0FHzliEJQYZFR6jxbmw1pPx7EiqogJtUqmzWbIlDcWxXBKftz-WBZydc0eYk4KUWLe_mMwBDhLwBt5ewgxS5TBNxgqdOF5F4MPWpRr7CQttrVxgDxkZe6FRlwtQWiJg16VgtLg-4wbl6TAYaHzuMt0R_R-S7sUwyzu5RT5-dqT7L7J8rXPhNqyLUH9KwPq4-AjJN7fOj8H4krEoNiRNNp744o2d3qLX9or_n4HQPPjtOMW-aO7a-u_8kvJO5eGVOw-UsWyquMd1pFbyQNy72xSNydaGj8CIDVDMjoqN-rH9VLcuj0Rc7vHP2zTZ_5oqHb3MlybyuMcRwViw_cWsZZwp6CUyhYlu-nrNcRP5m00]--></g></svg>