<svg xmlns="http://www.w3.org/2000/svg" xmlns:xlink="http://www.w3.org/1999/xlink" contentStyleType="text/css" data-diagram-type="CLASS" height="1022px" preserveAspectRatio="none" style="width:1390px;height:1022px;background:#FFFFFF;" version="1.1" viewBox="0 0 1390 1022" width="1390px" zoomAndPan="magnify"><title>Sch&#233;ma de donn&#233;es &#8212; Plateforme Gestion Documentaire</title><defs/><g><g class="title" data-source-line="5"><text fill="#000000" font-family="Verdana" font-size="22" font-weight="bold" lengthAdjust="spacing" textLength="626.9581" x="377.1169" y="38.5181">Sch&#233;ma de donn&#233;es &#8212; Plateforme Gestion Documentaire</text></g><!--class DT--><g class="entity" data-entity="DT" data-source-line="8" data-uid="ent0002" id="entity_DT"><rect fill="#FFFFFF" height="145.8551" rx="2.5" ry="2.5" style="stroke:#000000;stroke-width:1;" width="189.5928" x="12" y="442.4641"/><ellipse cx="60.3172" cy="462.446" fill="#FFFFFF" rx="9" ry="9" style="stroke:#000000;stroke-width:1;"/><path d="M62.2079,466.446 L57.2235,466.446 L57.2235,458.4304 L62.2079,458.4304 L62.2079,459.821 L58.8016,459.821 L58.8016,461.5554 L61.8954,461.5554 L61.8954,462.946 L58.8016,462.946 L58.8016,465.0554 L62.2079,465.0554 L62.2079,466.446 Z " fill="#000000"/><text fill="#000000" font-family="Verdana" font-size="11" font-style="italic" lengthAdjust="spacing" textLength="48.1137" x="96.4896" y="459.223">&#171;existing&#187;</text><text fill="#000000" font-family="Verdana" font-size="11" lengthAdjust="spacing" textLength="85.4584" x="77.8172" y="474.2049">document_types</text><line style="stroke:#000000;stroke-width:1;" x1="13" x2="200.5928" y1="482.4279" y2="482.4279"/><ellipse cx="23" cy="495.4188" fill="#FFFFFF" rx="3" ry="3" style="stroke:#000000;stroke-width:1;"/><text fill="#000000" font-family="Verdana" font-size="11" lengthAdjust="spacing" textLength="36.4758" x="30" y="498.1868">id : INT</text><line style="stroke:#000000;stroke-width:1;" x1="13" x2="200.5928" y1="505.4098" y2="505.4098"/><ellipse cx="23" cy="518.4007" fill="#FFFFFF" rx="3" ry="3" style="stroke:#000000;stroke-width:1;"/><text fill="#000000" font-family="Verdana" font-size="11" lengthAdjust="spacing" textLength="102.2002" x="30" y="521.1687">code : VARCHAR(50)</text><ellipse cx="23" cy="533.3826" fill="#FFFFFF" rx="3" ry="3" style="stroke:#000000;stroke-width:1;"/><text fill="#000000" font-family="Verdana" font-size="11" lengthAdjust="spacing" textLength="113.0461" x="30" y="536.1506">name : VARCHAR(255)</text><ellipse cx="23" cy="548.3645" fill="#FFFFFF" rx="3" ry="3" style="stroke:#000000;stroke-width:1;"/><text fill="#000000" font-family="Verdana" font-size="11" lengthAdjust="spacing" textLength="165.5928" x="30" y="551.1325">scope : ENUM(pilot,section,club)</text><text fill="#000000" font-family="Verdana" font-size="11" lengthAdjust="spacing" textLength="97.9103" x="30" y="566.1143">expires : BOOLEAN</text><text fill="#000000" font-family="Verdana" font-size="11" lengthAdjust="spacing" textLength="117.2372" x="30" y="581.0962">mandatory : BOOLEAN</text></g><!--class AD--><g class="entity" data-entity="AD" data-source-line="18" data-uid="ent0003" id="entity_AD"><rect fill="#FFFFFF" height="190.8008" rx="2.5" ry="2.5" style="stroke:#000000;stroke-width:1;" width="200.3287" x="297" y="716.9641"/><ellipse cx="339.8667" cy="736.946" fill="#FFFFFF" rx="9" ry="9" style="stroke:#000000;stroke-width:1;"/><path d="M341.7574,740.946 L336.773,740.946 L336.773,732.9304 L341.7574,732.9304 L341.7574,734.321 L338.3511,734.321 L338.3511,736.0554 L341.4449,736.0554 L341.4449,737.446 L338.3511,737.446 L338.3511,739.5554 L341.7574,739.5554 L341.7574,740.946 Z " fill="#000000"/><text fill="#000000" font-family="Verdana" font-size="11" font-style="italic" lengthAdjust="spacing" textLength="48.1137" x="386.8575" y="733.723">&#171;existing&#187;</text><text fill="#000000" font-family="Verdana" font-size="11" lengthAdjust="spacing" textLength="107.0952" x="357.3667" y="748.7049">archived_documents</text><line style="stroke:#000000;stroke-width:1;" x1="298" x2="496.3287" y1="756.9279" y2="756.9279"/><ellipse cx="308" cy="769.9188" fill="#FFFFFF" rx="3" ry="3" style="stroke:#000000;stroke-width:1;"/><text fill="#000000" font-family="Verdana" font-size="11" lengthAdjust="spacing" textLength="36.4758" x="315" y="772.6868">id : INT</text><line style="stroke:#000000;stroke-width:1;" x1="298" x2="496.3287" y1="779.9098" y2="779.9098"/><ellipse cx="308" cy="792.9007" fill="#FFFFFF" rx="3" ry="3" style="stroke:#000000;stroke-width:1;"/><text fill="#000000" font-family="Verdana" font-size="11" lengthAdjust="spacing" textLength="90.4853" x="315" y="795.6687">type_id : INT &#171;FK&#187;</text><text fill="#000000" font-family="Verdana" font-size="11" lengthAdjust="spacing" textLength="131.141" x="315" y="810.6506">pilot_login : VARCHAR(50)</text><text fill="#000000" font-family="Verdana" font-size="11" lengthAdjust="spacing" textLength="78.3745" x="315" y="825.6325">section_id : INT</text><text fill="#000000" font-family="Verdana" font-size="11" lengthAdjust="spacing" textLength="108.4042" x="315" y="840.6143">label : VARCHAR(255)</text><text fill="#000000" font-family="Verdana" font-size="11" lengthAdjust="spacing" textLength="127.841" x="315" y="855.5962">file_path : VARCHAR(255)</text><text fill="#000000" font-family="Verdana" font-size="11" lengthAdjust="spacing" textLength="100.5723" x="315" y="870.5781">validity_date : DATE</text><text fill="#000000" font-family="Verdana" font-size="11" lengthAdjust="spacing" textLength="176.3287" x="315" y="885.56">previous_version_id : INT &#171;FK self&#187;</text><text fill="#000000" font-family="Verdana" font-size="11" lengthAdjust="spacing" textLength="116.0602" x="315" y="900.5419">created_at : DATETIME</text></g><!--class PT--><g class="entity" data-entity="PT" data-source-line="32" data-uid="ent0004" id="entity_PT"><rect fill="#FFFFFF" height="160.837" rx="2.5" ry="2.5" style="stroke:#000000;stroke-width:1;" width="151.841" x="1143" y="107.9641"/><ellipse cx="1175.6711" cy="127.946" fill="#FFFFFF" rx="9" ry="9" style="stroke:#000000;stroke-width:1;"/><path d="M1177.5618,131.946 L1172.5774,131.946 L1172.5774,123.9304 L1177.5618,123.9304 L1177.5618,125.321 L1174.1555,125.321 L1174.1555,127.0554 L1177.2493,127.0554 L1177.2493,128.446 L1174.1555,128.446 L1174.1555,130.5554 L1177.5618,130.5554 L1177.5618,131.946 Z " fill="#000000"/><text fill="#000000" font-family="Verdana" font-size="11" font-style="italic" lengthAdjust="spacing" textLength="84.1274" x="1190.0425" y="124.723">&#171;existing-partial&#187;</text><text fill="#000000" font-family="Verdana" font-size="11" lengthAdjust="spacing" textLength="73.8755" x="1195.1685" y="139.7049">pdf_templates</text><line style="stroke:#000000;stroke-width:1;" x1="1144" x2="1293.841" y1="147.9279" y2="147.9279"/><ellipse cx="1154" cy="160.9188" fill="#FFFFFF" rx="3" ry="3" style="stroke:#000000;stroke-width:1;"/><text fill="#000000" font-family="Verdana" font-size="11" lengthAdjust="spacing" textLength="36.4758" x="1161" y="163.6868">id : INT</text><line style="stroke:#000000;stroke-width:1;" x1="1144" x2="1293.841" y1="170.9098" y2="170.9098"/><ellipse cx="1154" cy="183.9007" fill="#FFFFFF" rx="3" ry="3" style="stroke:#000000;stroke-width:1;"/><text fill="#000000" font-family="Verdana" font-size="11" lengthAdjust="spacing" textLength="102.2002" x="1161" y="186.6687">code : VARCHAR(50)</text><ellipse cx="1154" cy="198.8826" fill="#FFFFFF" rx="3" ry="3" style="stroke:#000000;stroke-width:1;"/><text fill="#000000" font-family="Verdana" font-size="11" lengthAdjust="spacing" textLength="113.0461" x="1161" y="201.6506">name : VARCHAR(255)</text><ellipse cx="1154" cy="213.8645" fill="#FFFFFF" rx="3" ry="3" style="stroke:#000000;stroke-width:1;"/><text fill="#000000" font-family="Verdana" font-size="11" lengthAdjust="spacing" textLength="127.841" x="1161" y="216.6325">file_path : VARCHAR(255)</text><text fill="#000000" font-family="Verdana" font-size="11" lengthAdjust="spacing" textLength="96.9753" x="1161" y="231.6143">fields_cache : JSON</text><text fill="#000000" font-family="Verdana" font-size="11" lengthAdjust="spacing" textLength="78.6275" x="1161" y="246.5962">contexts : JSON</text><text fill="#000000" font-family="Verdana" font-size="11" lengthAdjust="spacing" textLength="116.0602" x="1161" y="261.5781">created_at : DATETIME</text></g><!--class PTM--><g class="entity" data-entity="PTM" data-source-line="43" data-uid="ent0005" id="entity_PTM"><rect fill="#FFFFFF" height="160.837" rx="2.5" ry="2.5" style="stroke:#000000;stroke-width:1;" width="328.1918" x="1055" y="434.9641"/><ellipse cx="1152.7729" cy="454.946" fill="#FFFFFF" rx="9" ry="9" style="stroke:#000000;stroke-width:1;"/><path d="M1154.6635,458.946 L1149.6791,458.946 L1149.6791,450.9304 L1154.6635,450.9304 L1154.6635,452.321 L1151.2572,452.321 L1151.2572,454.0554 L1154.351,454.0554 L1154.351,455.446 L1151.2572,455.446 L1151.2572,457.5554 L1154.6635,457.5554 L1154.6635,458.946 Z " fill="#000000"/><text fill="#000000" font-family="Verdana" font-size="11" font-style="italic" lengthAdjust="spacing" textLength="84.1274" x="1190.7822" y="451.723">&#171;existing-partial&#187;</text><text fill="#000000" font-family="Verdana" font-size="11" lengthAdjust="spacing" textLength="125.1461" x="1170.2729" y="466.7049">pdf_template_mappings</text><line style="stroke:#000000;stroke-width:1;" x1="1056" x2="1382.1918" y1="474.9279" y2="474.9279"/><ellipse cx="1066" cy="487.9188" fill="#FFFFFF" rx="3" ry="3" style="stroke:#000000;stroke-width:1;"/><text fill="#000000" font-family="Verdana" font-size="11" lengthAdjust="spacing" textLength="36.4758" x="1073" y="490.6868">id : INT</text><line style="stroke:#000000;stroke-width:1;" x1="1056" x2="1382.1918" y1="497.9098" y2="497.9098"/><ellipse cx="1066" cy="510.9007" fill="#FFFFFF" rx="3" ry="3" style="stroke:#000000;stroke-width:1;"/><text fill="#000000" font-family="Verdana" font-size="11" lengthAdjust="spacing" textLength="114.3442" x="1073" y="513.6687">template_id : INT &#171;FK&#187;</text><ellipse cx="1066" cy="525.8826" fill="#FFFFFF" rx="3" ry="3" style="stroke:#000000;stroke-width:1;"/><text fill="#000000" font-family="Verdana" font-size="11" lengthAdjust="spacing" textLength="128.215" x="1073" y="528.6506">pdf_field : VARCHAR(255)</text><ellipse cx="1066" cy="540.8645" fill="#FFFFFF" rx="3" ry="3" style="stroke:#000000;stroke-width:1;"/><text fill="#000000" font-family="Verdana" font-size="11" lengthAdjust="spacing" textLength="304.1918" x="1073" y="543.6325">source_type : ENUM(table,config,constant,expression,date)</text><ellipse cx="1066" cy="555.8464" fill="#FFFFFF" rx="3" ry="3" style="stroke:#000000;stroke-width:1;"/><text fill="#000000" font-family="Verdana" font-size="11" lengthAdjust="spacing" textLength="150.8199" x="1073" y="558.6143">source_value : VARCHAR(255)</text><text fill="#000000" font-family="Verdana" font-size="11" lengthAdjust="spacing" textLength="112.7052" x="1073" y="573.5962">format : VARCHAR(50)</text><text fill="#000000" font-family="Verdana" font-size="11" lengthAdjust="spacing" textLength="115.9941" x="1073" y="588.5781">context : VARCHAR(50)</text></g><!--class AI--><g class="entity" data-entity="AI" data-source-line="55" data-uid="ent0006" id="entity_AI"><rect fill="#FFFFFF" height="250.7283" rx="2.5" ry="2.5" style="stroke:#000000;stroke-width:1;" width="379.3635" x="666.5" y="62.9641"/><ellipse cx="805.6546" cy="82.946" fill="#FFFFFF" rx="9" ry="9" style="stroke:#000000;stroke-width:1;"/><path d="M807.5452,86.946 L802.5608,86.946 L802.5608,78.9304 L807.5452,78.9304 L807.5452,80.321 L804.1389,80.321 L804.1389,82.0554 L807.2327,82.0554 L807.2327,83.446 L804.1389,83.446 L804.1389,85.5554 L807.5452,85.5554 L807.5452,86.946 Z " fill="#000000"/><text fill="#000000" font-family="Verdana" font-size="11" font-style="italic" lengthAdjust="spacing" textLength="84.1274" x="827.868" y="79.723">&#171;existing-partial&#187;</text><text fill="#000000" font-family="Verdana" font-size="11" lengthAdjust="spacing" textLength="93.5544" x="823.1546" y="94.7049">acceptation_items</text><line style="stroke:#000000;stroke-width:1;" x1="667.5" x2="1044.8635" y1="102.9279" y2="102.9279"/><ellipse cx="677.5" cy="115.9188" fill="#FFFFFF" rx="3" ry="3" style="stroke:#000000;stroke-width:1;"/><text fill="#000000" font-family="Verdana" font-size="11" lengthAdjust="spacing" textLength="36.4758" x="684.5" y="118.6868">id : INT</text><line style="stroke:#000000;stroke-width:1;" x1="667.5" x2="1044.8635" y1="125.9098" y2="125.9098"/><ellipse cx="677.5" cy="138.9007" fill="#FFFFFF" rx="3" ry="3" style="stroke:#000000;stroke-width:1;"/><text fill="#000000" font-family="Verdana" font-size="11" lengthAdjust="spacing" textLength="102.2002" x="684.5" y="141.6687">code : VARCHAR(50)</text><ellipse cx="677.5" cy="153.8826" fill="#FFFFFF" rx="3" ry="3" style="stroke:#000000;stroke-width:1;"/><text fill="#000000" font-family="Verdana" font-size="11" lengthAdjust="spacing" textLength="103.4102" x="684.5" y="156.6506">title : VARCHAR(255)</text><ellipse cx="677.5" cy="168.8645" fill="#FFFFFF" rx="3" ry="3" style="stroke:#000000;stroke-width:1;"/><text fill="#000000" font-family="Verdana" font-size="11" lengthAdjust="spacing" textLength="355.3635" x="684.5" y="171.6325">category : ENUM(document,formation,controle,briefing,autorisation)</text><ellipse cx="677.5" cy="183.8464" fill="#FFFFFF" rx="3" ry="3" style="stroke:#000000;stroke-width:1;"/><text fill="#000000" font-family="Verdana" font-size="11" lengthAdjust="spacing" textLength="192.4766" x="684.5" y="186.6143">target_type : ENUM(internal,external)</text><text fill="#000000" font-family="Verdana" font-size="11" lengthAdjust="spacing" textLength="129.491" x="684.5" y="201.5962">pdf_path : VARCHAR(255)</text><text fill="#000000" font-family="Verdana" font-size="11" lengthAdjust="spacing" textLength="101.8483" x="684.5" y="216.5781">version_date : DATE</text><text fill="#000000" font-family="Verdana" font-size="11" lengthAdjust="spacing" textLength="117.2372" x="684.5" y="231.56">mandatory : BOOLEAN</text><text fill="#000000" font-family="Verdana" font-size="11" lengthAdjust="spacing" textLength="80.5414" x="684.5" y="246.5419">deadline : DATE</text><text fill="#000000" font-family="Verdana" font-size="11" lengthAdjust="spacing" textLength="90.3204" x="684.5" y="261.5238">active : BOOLEAN</text><text fill="#000000" font-family="Verdana" font-size="11" lengthAdjust="spacing" textLength="151.8099" x="684.5" y="276.5057">double_validation : BOOLEAN</text><text fill="#000000" font-family="Verdana" font-size="11" lengthAdjust="spacing" textLength="135.772" x="684.5" y="291.4876">role_party1 : VARCHAR(50)</text><text fill="#000000" font-family="Verdana" font-size="11" lengthAdjust="spacing" textLength="135.772" x="684.5" y="306.4694">role_party2 : VARCHAR(50)</text></g><!--class AC--><g class="entity" data-entity="AC" data-source-line="72" data-uid="ent0007" id="entity_AC"><rect fill="#FFFFFF" height="250.7283" rx="2.5" ry="2.5" style="stroke:#000000;stroke-width:1;" width="313.2759" x="591.5" y="389.9641"/><ellipse cx="704.3243" cy="409.946" fill="#FFFFFF" rx="9" ry="9" style="stroke:#000000;stroke-width:1;"/><path d="M706.2149,413.946 L701.2305,413.946 L701.2305,405.9304 L706.2149,405.9304 L706.2149,407.321 L702.8086,407.321 L702.8086,409.0554 L705.9024,409.0554 L705.9024,410.446 L702.8086,410.446 L702.8086,412.5554 L706.2149,412.5554 L706.2149,413.946 Z " fill="#000000"/><text fill="#000000" font-family="Verdana" font-size="11" font-style="italic" lengthAdjust="spacing" textLength="84.1274" x="719.8243" y="406.723">&#171;existing-partial&#187;</text><text fill="#000000" font-family="Verdana" font-size="11" lengthAdjust="spacing" textLength="65.3726" x="729.2017" y="421.7049">acceptations</text><line style="stroke:#000000;stroke-width:1;" x1="592.5" x2="903.7759" y1="429.9279" y2="429.9279"/><ellipse cx="602.5" cy="442.9188" fill="#FFFFFF" rx="3" ry="3" style="stroke:#000000;stroke-width:1;"/><text fill="#000000" font-family="Verdana" font-size="11" lengthAdjust="spacing" textLength="36.4758" x="609.5" y="445.6868">id : INT</text><line style="stroke:#000000;stroke-width:1;" x1="592.5" x2="903.7759" y1="452.9098" y2="452.9098"/><ellipse cx="602.5" cy="465.9007" fill="#FFFFFF" rx="3" ry="3" style="stroke:#000000;stroke-width:1;"/><text fill="#000000" font-family="Verdana" font-size="11" lengthAdjust="spacing" textLength="91.2333" x="609.5" y="468.6687">item_id : INT &#171;FK&#187;</text><ellipse cx="602.5" cy="480.8826" fill="#FFFFFF" rx="3" ry="3" style="stroke:#000000;stroke-width:1;"/><text fill="#000000" font-family="Verdana" font-size="11" lengthAdjust="spacing" textLength="111.5612" x="609.5" y="483.6506">signed_at : DATETIME</text><text fill="#000000" font-family="Verdana" font-size="11" lengthAdjust="spacing" textLength="101.4743" x="609.5" y="498.6325">signer_user_id : INT</text><text fill="#000000" font-family="Verdana" font-size="11" lengthAdjust="spacing" textLength="150.3469" x="609.5" y="513.6143">signer_name : VARCHAR(255)</text><text fill="#000000" font-family="Verdana" font-size="11" lengthAdjust="spacing" textLength="170.7517" x="609.5" y="528.5962">signer_firstname : VARCHAR(255)</text><text fill="#000000" font-family="Verdana" font-size="11" lengthAdjust="spacing" textLength="289.2759" x="609.5" y="543.5781">signature_method : ENUM(click,touchpad,upload,paper)</text><text fill="#000000" font-family="Verdana" font-size="11" lengthAdjust="spacing" textLength="153.4928" x="609.5" y="558.56">signature_file : VARCHAR(255)</text><text fill="#000000" font-family="Verdana" font-size="11" lengthAdjust="spacing" textLength="144.473" x="609.5" y="573.5419">party : ENUM(party1,party2)</text><text fill="#000000" font-family="Verdana" font-size="11" lengthAdjust="spacing" textLength="131.141" x="609.5" y="588.5238">pilot_login : VARCHAR(50)</text><text fill="#000000" font-family="Verdana" font-size="11" lengthAdjust="spacing" textLength="89.4624" x="609.5" y="603.5057">attached_by : INT</text><text fill="#000000" font-family="Verdana" font-size="11" lengthAdjust="spacing" textLength="122.2531" x="609.5" y="618.4876">attached_at : DATETIME</text><text fill="#000000" font-family="Verdana" font-size="11" lengthAdjust="spacing" textLength="135.706" x="609.5" y="633.4694">archived_doc_id : INT &#171;FK&#187;</text></g><!--class AS--><g class="entity" data-entity="AS" data-source-line="89" data-uid="ent0008" id="entity_AS"><rect fill="#FFFFFF" height="175.8189" rx="2.5" ry="2.5" style="stroke:#000000;stroke-width:1;" width="225.1226" x="755.5" y="724.4641"/><ellipse cx="810.0322" cy="744.446" fill="#FFFFFF" rx="9" ry="9" style="stroke:#000000;stroke-width:1;"/><path d="M811.9228,748.446 L806.9384,748.446 L806.9384,740.4304 L811.9228,740.4304 L811.9228,741.821 L808.5165,741.821 L808.5165,743.5554 L811.6103,743.5554 L811.6103,744.946 L808.5165,744.946 L808.5165,747.0554 L811.9228,747.0554 L811.9228,748.446 Z " fill="#000000"/><text fill="#000000" font-family="Verdana" font-size="11" font-style="italic" lengthAdjust="spacing" textLength="84.1274" x="839.7476" y="741.223">&#171;existing-partial&#187;</text><text fill="#000000" font-family="Verdana" font-size="11" lengthAdjust="spacing" textLength="108.5582" x="827.5322" y="756.2049">acceptation_sessions</text><line style="stroke:#000000;stroke-width:1;" x1="756.5" x2="979.6226" y1="764.4279" y2="764.4279"/><ellipse cx="766.5" cy="777.4188" fill="#FFFFFF" rx="3" ry="3" style="stroke:#000000;stroke-width:1;"/><text fill="#000000" font-family="Verdana" font-size="11" lengthAdjust="spacing" textLength="36.4758" x="773.5" y="780.1868">id : INT</text><line style="stroke:#000000;stroke-width:1;" x1="756.5" x2="979.6226" y1="787.4098" y2="787.4098"/><ellipse cx="766.5" cy="800.4007" fill="#FFFFFF" rx="3" ry="3" style="stroke:#000000;stroke-width:1;"/><text fill="#000000" font-family="Verdana" font-size="11" lengthAdjust="spacing" textLength="91.2333" x="773.5" y="803.1687">item_id : INT &#171;FK&#187;</text><ellipse cx="766.5" cy="815.3826" fill="#FFFFFF" rx="3" ry="3" style="stroke:#000000;stroke-width:1;"/><text fill="#000000" font-family="Verdana" font-size="11" lengthAdjust="spacing" textLength="106.7982" x="773.5" y="818.1506">token : VARCHAR(64)</text><ellipse cx="766.5" cy="830.3645" fill="#FFFFFF" rx="3" ry="3" style="stroke:#000000;stroke-width:1;"/><text fill="#000000" font-family="Verdana" font-size="11" lengthAdjust="spacing" textLength="201.1226" x="773.5" y="833.1325">mode : ENUM(direct,link,qrcode,paper)</text><ellipse cx="766.5" cy="845.3464" fill="#FFFFFF" rx="3" ry="3" style="stroke:#000000;stroke-width:1;"/><text fill="#000000" font-family="Verdana" font-size="11" lengthAdjust="spacing" textLength="86.5254" x="773.5" y="848.1143">initiated_by : INT</text><ellipse cx="766.5" cy="860.3283" fill="#FFFFFF" rx="3" ry="3" style="stroke:#000000;stroke-width:1;"/><text fill="#000000" font-family="Verdana" font-size="11" lengthAdjust="spacing" textLength="114.5642" x="773.5" y="863.0962">expires_at : DATETIME</text><text fill="#000000" font-family="Verdana" font-size="11" lengthAdjust="spacing" textLength="101.9583" x="773.5" y="878.0781">used_at : DATETIME</text><text fill="#000000" font-family="Verdana" font-size="11" lengthAdjust="spacing" textLength="116.0602" x="773.5" y="893.06">created_at : DATETIME</text></g><!--class DW--><g class="entity" data-entity="DW" data-source-line="102" data-uid="ent0009" id="entity_DW"><rect fill="#FFFFFF" height="235.7464" rx="2.5" ry="2.5" style="stroke:#000000;stroke-width:1;" width="423.7921" x="149" y="70.4641"/><ellipse cx="301.8715" cy="90.446" fill="#FFFFFF" rx="9" ry="9" style="stroke:#000000;stroke-width:1;"/><path d="M303.7621,94.446 L298.7777,94.446 L298.7777,86.4304 L303.7621,86.4304 L303.7621,87.821 L300.3558,87.821 L300.3558,89.5554 L303.4496,89.5554 L303.4496,90.946 L300.3558,90.946 L300.3558,93.0554 L303.7621,93.0554 L303.7621,94.446 Z " fill="#000000"/><text fill="#000000" font-family="Verdana" font-size="11" font-style="italic" lengthAdjust="spacing" textLength="30.3048" x="359.4937" y="87.223">&#171;new&#187;</text><text fill="#000000" font-family="Verdana" font-size="11" lengthAdjust="spacing" textLength="110.5492" x="319.3715" y="102.2049">document_workflows</text><line style="stroke:#000000;stroke-width:1;" x1="150" x2="571.7921" y1="110.4279" y2="110.4279"/><ellipse cx="160" cy="123.4188" fill="#FFFFFF" rx="3" ry="3" style="stroke:#000000;stroke-width:1;"/><text fill="#000000" font-family="Verdana" font-size="11" lengthAdjust="spacing" textLength="36.4758" x="167" y="126.1868">id : INT</text><line style="stroke:#000000;stroke-width:1;" x1="150" x2="571.7921" y1="133.4098" y2="133.4098"/><ellipse cx="160" cy="146.4007" fill="#FFFFFF" rx="3" ry="3" style="stroke:#000000;stroke-width:1;"/><text fill="#000000" font-family="Verdana" font-size="11" lengthAdjust="spacing" textLength="102.2002" x="167" y="149.1687">code : VARCHAR(50)</text><ellipse cx="160" cy="161.3826" fill="#FFFFFF" rx="3" ry="3" style="stroke:#000000;stroke-width:1;"/><text fill="#000000" font-family="Verdana" font-size="11" lengthAdjust="spacing" textLength="113.0461" x="167" y="164.1506">name : VARCHAR(255)</text><ellipse cx="160" cy="176.3645" fill="#FFFFFF" rx="3" ry="3" style="stroke:#000000;stroke-width:1;"/><text fill="#000000" font-family="Verdana" font-size="11" lengthAdjust="spacing" textLength="231.1964" x="167" y="179.1325">source_type : ENUM(static_pdf,pdf_template)</text><ellipse cx="160" cy="191.3464" fill="#FFFFFF" rx="3" ry="3" style="stroke:#000000;stroke-width:1;"/><text fill="#000000" font-family="Verdana" font-size="11" lengthAdjust="spacing" textLength="137.752" x="167" y="194.1143">source_ref : VARCHAR(255)</text><ellipse cx="160" cy="206.3283" fill="#FFFFFF" rx="3" ry="3" style="stroke:#000000;stroke-width:1;"/><text fill="#000000" font-family="Verdana" font-size="11" lengthAdjust="spacing" textLength="399.7921" x="167" y="209.0962">action_type : ENUM(generate_only,accept_internal,sign_external,sign_double)</text><text fill="#000000" font-family="Verdana" font-size="11" lengthAdjust="spacing" textLength="164.8118" x="167" y="224.0781">acceptance_category : ENUM(...)</text><ellipse cx="160" cy="236.292" fill="#FFFFFF" rx="3" ry="3" style="stroke:#000000;stroke-width:1;"/><text fill="#000000" font-family="Verdana" font-size="11" lengthAdjust="spacing" textLength="179.7937" x="167" y="239.06">doc_type_code : VARCHAR(50) &#171;FK&#187;</text><ellipse cx="160" cy="251.2739" fill="#FFFFFF" rx="3" ry="3" style="stroke:#000000;stroke-width:1;"/><text fill="#000000" font-family="Verdana" font-size="11" lengthAdjust="spacing" textLength="232.9453" x="167" y="254.0419">entity_binding : ENUM(pilot,section,club,free)</text><text fill="#000000" font-family="Verdana" font-size="11" lengthAdjust="spacing" textLength="119.5141" x="167" y="269.0238">retention_months : INT</text><text fill="#000000" font-family="Verdana" font-size="11" lengthAdjust="spacing" textLength="66.7805" x="167" y="284.0057">config : JSON</text><text fill="#000000" font-family="Verdana" font-size="11" lengthAdjust="spacing" textLength="90.3204" x="167" y="298.9876">active : BOOLEAN</text></g><!--class WE--><g class="entity" data-entity="WE" data-source-line="118" data-uid="ent0010" id="entity_WE"><rect fill="#FFFFFF" height="190.8008" rx="2.5" ry="2.5" style="stroke:#000000;stroke-width:1;" width="318.9849" x="237.5" y="419.9641"/><ellipse cx="339.0624" cy="439.946" fill="#FFFFFF" rx="9" ry="9" style="stroke:#000000;stroke-width:1;"/><path d="M340.953,443.946 L335.9686,443.946 L335.9686,435.9304 L340.953,435.9304 L340.953,437.321 L337.5467,437.321 L337.5467,439.0554 L340.6405,439.0554 L340.6405,440.446 L337.5467,440.446 L337.5467,442.5554 L340.953,442.5554 L340.953,443.946 Z " fill="#000000"/><text fill="#000000" font-family="Verdana" font-size="11" font-style="italic" lengthAdjust="spacing" textLength="30.3048" x="395.5901" y="436.723">&#171;new&#187;</text><text fill="#000000" font-family="Verdana" font-size="11" lengthAdjust="spacing" textLength="108.3602" x="356.5624" y="451.7049">workflow_executions</text><line style="stroke:#000000;stroke-width:1;" x1="238.5" x2="555.4849" y1="459.9279" y2="459.9279"/><ellipse cx="248.5" cy="472.9188" fill="#FFFFFF" rx="3" ry="3" style="stroke:#000000;stroke-width:1;"/><text fill="#000000" font-family="Verdana" font-size="11" lengthAdjust="spacing" textLength="36.4758" x="255.5" y="475.6868">id : INT</text><line style="stroke:#000000;stroke-width:1;" x1="238.5" x2="555.4849" y1="482.9098" y2="482.9098"/><ellipse cx="248.5" cy="495.9007" fill="#FFFFFF" rx="3" ry="3" style="stroke:#000000;stroke-width:1;"/><text fill="#000000" font-family="Verdana" font-size="11" lengthAdjust="spacing" textLength="115.5762" x="255.5" y="498.6687">workflow_id : INT &#171;FK&#187;</text><ellipse cx="248.5" cy="510.8826" fill="#FFFFFF" rx="3" ry="3" style="stroke:#000000;stroke-width:1;"/><text fill="#000000" font-family="Verdana" font-size="11" lengthAdjust="spacing" textLength="294.9849" x="255.5" y="513.6506">status : ENUM(pending,generated,signed,archived,failed)</text><ellipse cx="248.5" cy="525.8645" fill="#FFFFFF" rx="3" ry="3" style="stroke:#000000;stroke-width:1;"/><text fill="#000000" font-family="Verdana" font-size="11" lengthAdjust="spacing" textLength="86.5254" x="255.5" y="528.6325">initiated_by : INT</text><text fill="#000000" font-family="Verdana" font-size="11" lengthAdjust="spacing" textLength="132.395" x="255.5" y="543.6143">entity_ref : VARCHAR(255)</text><text fill="#000000" font-family="Verdana" font-size="11" lengthAdjust="spacing" textLength="145.1439" x="255.5" y="558.5962">generated_doc_id : INT &#171;FK&#187;</text><text fill="#000000" font-family="Verdana" font-size="11" lengthAdjust="spacing" textLength="169.2448" x="255.5" y="573.5781">acceptance_session_id : INT &#171;FK&#187;</text><text fill="#000000" font-family="Verdana" font-size="11" lengthAdjust="spacing" textLength="116.0602" x="255.5" y="588.56">created_at : DATETIME</text><text fill="#000000" font-family="Verdana" font-size="11" lengthAdjust="spacing" textLength="131.8891" x="255.5" y="603.5419">completed_at : DATETIME</text></g><!--link DT to AD--><g class="link" data-entity-1="DT" data-entity-2="AD" data-source-line="132" data-uid="lnk11" id="link_DT_AD"><path codeLine="132" d="M176.4144,594.5708 C192.1944,611.9108 203.84,624.3141 220,640.9641 C244.37,666.0641 258.3391,680.0831 283.6691,704.5331" fill="none" id="DT-AD" style="stroke:#000000;stroke-width:1;"/><line style="stroke:#000000;stroke-width:1;" x1="170.7638" x2="176.6806" y1="594.3047" y2="588.9203"/><line style="stroke:#000000;stroke-width:1;" x1="172.783" x2="178.6998" y1="596.5235" y2="591.139"/><line style="stroke:#000000;stroke-width:1;" x1="176.4144" x2="171.03" y1="594.5708" y2="588.6541"/><line style="stroke:#000000;stroke-width:1;" x1="290.864" x2="300.787" y1="711.4781" y2="712.7171"/><line style="stroke:#000000;stroke-width:1;" x1="290.864" x2="292.453" y1="711.4781" y2="721.3511"/><line style="stroke:#000000;stroke-width:1;" x1="290.864" x2="296.62" y1="711.4781" y2="717.0341"/><ellipse cx="286.5471" cy="707.3111" fill="none" rx="4" ry="4" style="stroke:#000000;stroke-width:1;"/><text fill="#000000" font-family="Verdana" font-size="11" lengthAdjust="spacing" textLength="22.5498" x="264" y="683.723">type</text></g><!--link AD to AD--><g class="link" data-entity-1="AD" data-entity-2="AD" data-source-line="133" data-uid="lnk12" id="link_AD_AD"><path codeLine="133" d="M514.9447,790.9364 C535.2847,793.5364 532,799.1841 532,812.4641 C532,825.7441 525.3654,832.6597 505.0254,835.2597" fill="none" id="AD-AD" style="stroke:#000000;stroke-width:1;"/><line style="stroke:#000000;stroke-width:1;" x1="505.0254" x2="496.3292" y1="789.6685" y2="794.6057"/><line style="stroke:#000000;stroke-width:1;" x1="505.0254" x2="497.8508" y1="789.6685" y2="782.7025"/><line style="stroke:#000000;stroke-width:1;" x1="505.0254" x2="497.09" y1="789.6685" y2="788.6541"/><ellipse cx="510.977" cy="790.4292" fill="none" rx="4" ry="4" style="stroke:#000000;stroke-width:1;"/><line style="stroke:#000000;stroke-width:1;" x1="501.5649" x2="500.5505" y1="839.7346" y2="831.7992"/><line style="stroke:#000000;stroke-width:1;" x1="504.5407" x2="503.5263" y1="839.3543" y2="831.4188"/><line style="stroke:#000000;stroke-width:1;" x1="505.0254" x2="497.09" y1="835.2597" y2="836.2741"/><text fill="#000000" font-family="Verdana" font-size="11" lengthAdjust="spacing" textLength="87.4383" x="538" y="817.223">previous_version</text></g><!--link PT to PTM--><g class="link" data-entity-1="PT" data-entity-2="PTM" data-source-line="134" data-uid="lnk13" id="link_PT_PTM"><path codeLine="134" d="M1219,276.9641 C1219,327.4241 1219,366.4741 1219,416.9341" fill="none" id="PT-PTM" style="stroke:#000000;stroke-width:1;"/><line style="stroke:#000000;stroke-width:1;" x1="1215" x2="1223" y1="272.9641" y2="272.9641"/><line style="stroke:#000000;stroke-width:1;" x1="1215" x2="1223" y1="275.9641" y2="275.9641"/><line style="stroke:#000000;stroke-width:1;" x1="1219" x2="1219" y1="276.9641" y2="268.9641"/><line style="stroke:#000000;stroke-width:1;" x1="1219" x2="1225" y1="426.9341" y2="434.9341"/><line style="stroke:#000000;stroke-width:1;" x1="1219" x2="1213" y1="426.9341" y2="434.9341"/><line style="stroke:#000000;stroke-width:1;" x1="1219" x2="1219" y1="426.9341" y2="434.9341"/><ellipse cx="1219" cy="420.9341" fill="none" rx="4" ry="4" style="stroke:#000000;stroke-width:1;"/><text fill="#000000" font-family="Verdana" font-size="11" lengthAdjust="spacing" textLength="51.6556" x="1220" y="356.723">mappings</text></g><!--link AI to AC--><g class="link" data-entity-1="AI" data-entity-2="AC" data-source-line="135" data-uid="lnk14" id="link_AI_AC"><path codeLine="135" d="M812.0275,321.776 C803.7875,346.576 803.3314,347.9309 795.1014,372.7209" fill="none" id="AI-AC" style="stroke:#000000;stroke-width:1;"/><line style="stroke:#000000;stroke-width:1;" x1="809.4928" x2="817.0847" y1="316.7188" y2="319.2413"/><line style="stroke:#000000;stroke-width:1;" x1="808.5469" x2="816.1388" y1="319.5658" y2="322.0883"/><line style="stroke:#000000;stroke-width:1;" x1="812.0275" x2="814.55" y1="321.776" y2="314.1841"/><line style="stroke:#000000;stroke-width:1;" x1="791.9506" x2="795.1244" y1="382.2116" y2="391.6946"/><line style="stroke:#000000;stroke-width:1;" x1="791.9506" x2="783.7356" y1="382.2116" y2="387.9136"/><line style="stroke:#000000;stroke-width:1;" x1="791.9506" x2="789.43" y1="382.2116" y2="389.8041"/><ellipse cx="793.8411" cy="376.5172" fill="none" rx="4" ry="4" style="stroke:#000000;stroke-width:1;"/><text fill="#000000" font-family="Verdana" font-size="11" lengthAdjust="spacing" textLength="65.3726" x="803" y="356.723">acceptations</text></g><!--link AI to AS--><g class="link" data-entity-1="AI" data-entity-2="AS" data-source-line="136" data-uid="lnk15" id="link_AI_AS"><path codeLine="136" d="M906.1281,321.8048 C913.6981,346.5748 918,364.9941 922,389.9641 C939.66,500.1141 939.04,530.7141 922,640.9641 C917.73,668.5841 915.3161,680.7233 906.8161,707.0733" fill="none" id="AI-AS" style="stroke:#000000;stroke-width:1;"/><line style="stroke:#000000;stroke-width:1;" x1="901.1337" x2="908.7844" y1="319.1485" y2="316.8104"/><line style="stroke:#000000;stroke-width:1;" x1="902.0105" x2="909.6612" y1="322.0175" y2="319.6794"/><line style="stroke:#000000;stroke-width:1;" x1="906.1281" x2="903.79" y1="321.8048" y2="314.1541"/><line style="stroke:#000000;stroke-width:1;" x1="903.746" x2="907.0003" y1="716.5904" y2="726.0461"/><line style="stroke:#000000;stroke-width:1;" x1="903.746" x2="895.5797" y1="716.5904" y2="722.3621"/><line style="stroke:#000000;stroke-width:1;" x1="903.746" x2="901.29" y1="716.5904" y2="724.2041"/><ellipse cx="905.588" cy="710.8802" fill="none" rx="4" ry="4" style="stroke:#000000;stroke-width:1;"/><text fill="#000000" font-family="Verdana" font-size="11" lengthAdjust="spacing" textLength="43.5707" x="937" y="520.223">sessions</text></g><!--link AC to AD--><g class="link" data-entity-1="AC" data-entity-2="AD" data-source-line="137" data-uid="lnk16" id="link_AC_AD"><path codeLine="137" d="M687.5109,656.3668 C677.2409,673.0668 674.72,673.6641 661,686.9641 C615.34,731.2241 565.0679,756.809 511.3379,776.689" fill="none" id="AC-AD" style="stroke:#000000;stroke-width:1;"/><line style="stroke:#000000;stroke-width:1;" x1="692.7493" x2="691.8291" y1="647.8486" y2="637.8911"/><line style="stroke:#000000;stroke-width:1;" x1="692.7493" x2="702.0509" y1="647.8486" y2="644.1771"/><line style="stroke:#000000;stroke-width:1;" x1="692.7493" x2="696.94" y1="647.8486" y2="641.0341"/><ellipse cx="689.6062" cy="652.9595" fill="none" rx="4" ry="4" style="stroke:#000000;stroke-width:1;"/><line style="stroke:#000000;stroke-width:1;" x1="507.5865" x2="497.27" y1="778.077" y2="781.8941"/><ellipse cx="507.5865" cy="778.077" fill="none" rx="4" ry="4" style="stroke:#000000;stroke-width:1;"/><line style="stroke:#000000;stroke-width:1;" x1="502.4095" x2="499.6334" y1="784.2575" y2="776.7546"/><text fill="#000000" font-family="Verdana" font-size="11" lengthAdjust="spacing" textLength="93.0373" x="676" y="683.723">document archiv&#233;</text></g><!--link DW to WE--><g class="link" data-entity-1="DW" data-entity-2="WE" data-source-line="138" data-uid="lnk17" id="link_DW_WE"><path codeLine="138" d="M374.8811,314.7454 C379.0011,351.9254 380.6272,366.6936 384.5472,402.0636" fill="none" id="DW-WE" style="stroke:#000000;stroke-width:1;"/><line style="stroke:#000000;stroke-width:1;" x1="370.4649" x2="378.4162" y1="311.2103" y2="310.3292"/><line style="stroke:#000000;stroke-width:1;" x1="370.7953" x2="378.7466" y1="314.1921" y2="313.311"/><line style="stroke:#000000;stroke-width:1;" x1="374.8811" x2="374" y1="314.7454" y2="306.7941"/><line style="stroke:#000000;stroke-width:1;" x1="385.6488" x2="392.4935" y1="412.0028" y2="419.2932"/><line style="stroke:#000000;stroke-width:1;" x1="385.6488" x2="380.5665" y1="412.0028" y2="420.615"/><line style="stroke:#000000;stroke-width:1;" x1="385.6488" x2="386.53" y1="412.0028" y2="419.9541"/><ellipse cx="384.9878" cy="406.0393" fill="none" rx="4" ry="4" style="stroke:#000000;stroke-width:1;"/><text fill="#000000" font-family="Verdana" font-size="11" lengthAdjust="spacing" textLength="55.8356" x="380" y="356.723">ex&#233;cutions</text></g><!--link WE to AD--><g class="link" data-entity-1="WE" data-entity-2="AD" data-source-line="139" data-uid="lnk18" id="link_WE_AD"><path codeLine="139" d="M397,629.0241 C397,662.8941 397,668.0641 397,701.9341" fill="none" id="WE-AD" style="stroke:#000000;stroke-width:1;"/><line style="stroke:#000000;stroke-width:1;" x1="397" x2="391" y1="619.0241" y2="611.0241"/><line style="stroke:#000000;stroke-width:1;" x1="397" x2="403" y1="619.0241" y2="611.0241"/><line style="stroke:#000000;stroke-width:1;" x1="397" x2="397" y1="619.0241" y2="611.0241"/><ellipse cx="397" cy="625.0241" fill="none" rx="4" ry="4" style="stroke:#000000;stroke-width:1;"/><line style="stroke:#000000;stroke-width:1;" x1="397" x2="397" y1="705.9341" y2="716.9341"/><ellipse cx="397" cy="705.9341" fill="none" rx="4" ry="4" style="stroke:#000000;stroke-width:1;"/><line style="stroke:#000000;stroke-width:1;" x1="401" x2="393" y1="712.9341" y2="712.9341"/><text fill="#000000" font-family="Verdana" font-size="11" lengthAdjust="spacing" textLength="92.3333" x="398" y="683.723">document g&#233;n&#233;r&#233;</text></g><!--link WE to AS--><g class="link" data-entity-1="WE" data-entity-2="AS" data-source-line="140" data-uid="lnk19" id="link_WE_AS"><path codeLine="140" d="M479.528,624.9462 C503.328,652.1262 519.74,666.3941 550,686.9641 C581.75,708.5441 595.17,703.1841 631,716.9641 C671.62,732.5841 702.0433,744.562 741.2833,760.262" fill="none" id="WE-AS" style="stroke:#000000;stroke-width:1;"/><line style="stroke:#000000;stroke-width:1;" x1="472.9402" x2="463.156" y1="617.4228" y2="615.3568"/><line style="stroke:#000000;stroke-width:1;" x1="472.9402" x2="472.184" y1="617.4228" y2="607.4514"/><line style="stroke:#000000;stroke-width:1;" x1="472.9402" x2="467.67" y1="617.4228" y2="611.4041"/><ellipse cx="476.8929" cy="621.9368" fill="none" rx="4" ry="4" style="stroke:#000000;stroke-width:1;"/><line style="stroke:#000000;stroke-width:1;" x1="744.9971" x2="755.21" y1="761.7479" y2="765.8341"/><ellipse cx="744.9971" cy="761.7479" fill="none" rx="4" ry="4" style="stroke:#000000;stroke-width:1;"/><line style="stroke:#000000;stroke-width:1;" x1="752.9821" x2="750.0103" y1="760.6344" y2="768.062"/><text fill="#000000" font-family="Verdana" font-size="11" lengthAdjust="spacing" textLength="101.2653" x="551" y="683.723">session acceptation</text></g><!--link DW to DT--><g class="link" data-entity-1="DW" data-entity-2="DT" data-source-line="141" data-uid="lnk20" id="link_DW_DT"><path codeLine="141" d="M258.2174,320.9778 C222.8374,366.2578 199.4856,396.1202 168.3956,435.9102" fill="none" id="DW-DT" style="stroke:#000000;stroke-width:1;"/><line style="stroke:#000000;stroke-width:1;" x1="264.3744" x2="264.5721" y1="313.098" y2="303.0999"/><line style="stroke:#000000;stroke-width:1;" x1="264.3744" x2="274.0279" y1="313.098" y2="310.4883"/><line style="stroke:#000000;stroke-width:1;" x1="264.3744" x2="269.3" y1="313.098" y2="306.7941"/><ellipse cx="260.6802" cy="317.8259" fill="none" rx="4" ry="4" style="stroke:#000000;stroke-width:1;"/><line style="stroke:#000000;stroke-width:1;" x1="169.0847" x2="162.7808" y1="441.5249" y2="436.5994"/><line style="stroke:#000000;stroke-width:1;" x1="170.9318" x2="164.6279" y1="439.161" y2="434.2354"/><line style="stroke:#000000;stroke-width:1;" x1="168.3956" x2="163.47" y1="435.9102" y2="442.2141"/><text fill="#000000" font-family="Verdana" font-size="11" lengthAdjust="spacing" textLength="75.9214" x="235" y="356.723">doc_type_code</text></g><g class="legend" data-source-line="143"><rect fill="none" height="90.2717" rx="7.5" ry="7.5" style="stroke:#000000;stroke-width:1;" width="177.6214" x="1193.5704" y="918.7649"/><text fill="#000000" font-family="Verdana" font-size="14" font-weight="bold" lengthAdjust="spacing" textLength="54.8798" x="1202.2104" y="940.7308">Couleur</text><text fill="#000000" font-family="Verdana" font-size="14" font-weight="bold" lengthAdjust="spacing" textLength="28.4479" x="1264.3702" y="940.7308">&#201;tat</text><rect fill="#90EE90" height="19.0679" style="stroke:none;stroke-width:1;" width="62.1598" x="1198.5704" y="944.8328"/><text fill="#000000" font-family="Verdana" font-size="14" lengthAdjust="spacing" textLength="3.64" x="1198.5704" y="959.7987">&#160;</text><text fill="#000000" font-family="Verdana" font-size="14" lengthAdjust="spacing" textLength="52.1218" x="1264.3702" y="959.7987">Existant</text><rect fill="#FFFFE0" height="19.0679" style="stroke:none;stroke-width:1;" width="62.1598" x="1198.5704" y="963.9007"/><text fill="#000000" font-family="Verdana" font-size="14" lengthAdjust="spacing" textLength="3.64" x="1198.5704" y="978.8666">&#160;</text><text fill="#000000" font-family="Verdana" font-size="14" lengthAdjust="spacing" textLength="98.1816" x="1264.3702" y="978.8666">Existant partiel</text><rect fill="#ADD8E6" height="19.0679" style="stroke:none;stroke-width:1;" width="62.1598" x="1198.5704" y="982.9686"/><text fill="#000000" font-family="Verdana" font-size="14" lengthAdjust="spacing" textLength="7.28" x="1198.5704" y="997.9346">&#160;&#160;</text><text fill="#000000" font-family="Verdana" font-size="14" lengthAdjust="spacing" textLength="59.2758" x="1264.3702" y="997.9346">Nouveau</text><line style="stroke:#000000;stroke-width:1;" x1="1198.5704" x2="1366.1918" y1="925.7649" y2="925.7649"/><line style="stroke:#000000;stroke-width:1;" x1="1198.5704" x2="1366.1918" y1="944.8328" y2="944.8328"/><line style="stroke:#000000;stroke-width:1;" x1="1198.5704" x2="1366.1918" y1="963.9007" y2="963.9007"/><line style="stroke:#000000;stroke-width:1;" x1="1198.5704" x2="1366.1918" y1="982.9686" y2="982.9686"/><line style="stroke:#000000;stroke-width:1;" x1="1198.5704" x2="1366.1918" y1="1002.0365" y2="1002.0365"/><line style="stroke:#000000;stroke-width:1;" x1="1198.5704" x2="1198.5704" y1="925.7649" y2="1002.0365"/><line style="stroke:#000000;stroke-width:1;" x1="1260.7302" x2="1260.7302" y1="925.7649" y2="1002.0365"/><line style="stroke:#000000;stroke-width:1;" x1="1366.1918" x2="1366.1918" y1="925.7649" y2="1002.0365"/></g><!--SRC=[hLRDRkCs4BxhATWjq2Q173JffWSZDU0csTsqpG_Yj7iKQ6aa4wP8bQASkEi5UkszBv7dy9lqIJea9PcEbAGBvEAV6Gx9-UQRZ_ELda4EfE2KYQ2SCr5GHNCofV4yKx8IoOdaKf6x6TFW-HD8QSNrEodqXFq9vE0W23JJ7CWadgqVSeehI2A5M3z0IVxzwnzopQc6L2eyx3sKcab1JcLSvI0qPGg2u5jo8PCATpWWGp9MyOmjQ0Pa1-vPgQdGkm4kPNf9tYHrNAIN1PHl22t9wIqvFhOhcSX68_8f86IFi0ItEh-ynJ-3WRN44kyr9B-FRqu-Z6zsZhxRjMP1SzzyU7Jax6Ki2-Cuk_pjOgTWNEgmXDXSFenvDJMBuBx0wvUuwAUhgr_FnfTeowb8g9PgwLa_1-tzgKqEagX9nEKmFlr_EPYieyQC8Uz-6OtGOQyNSPanqScmldJaRSRf57WtvvHnY0ggPrtNWdAMO08HvcP0EHtVdfbp5IoOhCfe0Qhq3x5NmwDvQkyNAy2u9AAwZhqzlpWpiBI5FqJ7-_K3SaPHIv3hqtUR-XDadcR0DpmeaZJIa1U6MGx2Qvy60nj0-UlHuHbmKhnPKaOnZMSczEV9bI52ZFq1zxhqB4-Xq9TKbDEYm4oQv2w-BBjscovPzeWvnrwwb_UoKZ7O_chOh-cKGuW9fImpNxOc8R8VoM_A7XfMR4KZNweU68q6sEotKQ-XUcJtwV6zqOKuXa8xTdn39YmJL5SAdcC9tOH4A69vtMpdhy8Kftaz2CQ8HkOKmCBNj7heqhSAWXahYQ1E5OCKhn7I2aM3bTPTxqzL1dgh40nnKe9onDxzC2jDDP_eshehjvksJw48QZPDE1FUEegwiO3jHR929aHM3LmXVAz9A39mBWywS6ryXzqozvIhhjJ9brNArBYNyIMofTDvn9bLL9NuuUrMc_kbe7QcJ9NwwHMMcb4EUYQJfdenP_4yrBAAPmLDmghW4hyAMe3Q3ZDQqztMejS-I1Rcq26w-y8JGBKssfH4qsMROsjxZ8d_GdMmx2zML3eTg8isUQMYQJa7FvaVthh6o5q_kjx21pZM8J9t7lwXJATk0CMj1SF3zNRcUysxtKaTUT35u-MtwoqwhX0r76tmyO9AaHqXgmNGgcTkkPDgdd9vLyyk7p5X0NUlEBPqvRiqLOeZr8dGVs6srYj8-tQZRdRmTyi0wMzU5YduCdGiY5fXCYIE6dLo_vneM1uwoWWyxx56xk_lknCDw-oKqytRvuR3DPeoaI3BdXxJmbI1FLk1DZ6OJ8xQEojRcDspjdcbExBdSRuf7cO8SRNHgOzdBvQn3UsL9wnGLRPPW4qgR91EGYTVOTEQOKfH8P9dE5x3qrlLTjlU3j-gKjtNFOlwkyAWYUI29_hb1hWJzm1dzjLgC92VpEGxj6DjWBy-oy5WjNAsnxDbSDt6c6beI9e1AS3tlDdi1Et-A-Bx9kXhX2h0bUOmMH_Mj6UjVkk703kp3iJY3b4orWzrnGCqzCPcRdx5O6-5Twf_CxD_dIrYCTocVH1mm2ebHB5ifX7LrO_aHABKeBJWp_NVk0TP6VlnrzmioP3aOaHMvAmPXNpl4ZWIR-Hvwq5fQzKK9xOH_YMNJhlGYLTm5md-0m00]--></g></svg>