<svg xmlns="http://www.w3.org/2000/svg" xmlns:xlink="http://www.w3.org/1999/xlink" contentStyleType="text/css" data-diagram-type="DESCRIPTION" height="1003px" preserveAspectRatio="none" style="width:1783px;height:1003px;background:#FFFFFF;" version="1.1" viewBox="0 0 1783 1003" width="1783px" zoomAndPan="magnify"><title>Architecture &#8212; Plateforme de Gestion Documentaire GVV</title><defs/><g><g class="title" data-source-line="6"><text fill="#000000" font-family="Verdana" font-size="22" font-weight="bold" lengthAdjust="spacing" textLength="630.8081" x="571.7563" y="38.5181">Architecture &#8212; Plateforme de Gestion Documentaire GVV</text></g><!--cluster Plateforme Gestion Documentaire--><g class="cluster" data-entity="Plateforme Gestion Documentaire" data-source-line="8" data-uid="ent0002" id="cluster_Plateforme Gestion Documentaire"><path d="M13.5,217.9641 L219.5815,217.9641 A3.75,3.75 0 0 1 222.0815,220.4641 L229.0815,240.3082 L1064.5,240.3082 A2.5,2.5 0 0 1 1067,242.8082 L1067,886.4641 A2.5,2.5 0 0 1 1064.5,888.9641 L13.5,888.9641 A2.5,2.5 0 0 1 11,886.4641 L11,220.4641 A2.5,2.5 0 0 1 13.5,217.9641" fill="#FFFFFF" style="stroke:#000000;stroke-width:1;"/><line style="stroke:#000000;stroke-width:1;" x1="11" x2="229.0815" y1="240.3082" y2="240.3082"/><text fill="#000000" font-family="Verdana" font-size="12" font-weight="bold" lengthAdjust="spacing" textLength="205.0815" x="15" y="232.7922">Plateforme Gestion Documentaire</text></g><!--cluster Module 1 : Archivage--><g class="cluster" data-entity="Module 1 . Archivage" data-source-line="10" data-uid="ent0003" id="cluster_Module 1 . Archivage"><path d="M585.5,623.9641 L711.3249,623.9641 A3.75,3.75 0 0 1 713.8249,626.4641 L720.8249,646.3082 L790.5,646.3082 A2.5,2.5 0 0 1 793,648.8082 L793,854.4641 A2.5,2.5 0 0 1 790.5,856.9641 L585.5,856.9641 A2.5,2.5 0 0 1 583,854.4641 L583,626.4641 A2.5,2.5 0 0 1 585.5,623.9641" fill="#90EE90" style="stroke:#000000;stroke-width:1;"/><line style="stroke:#000000;stroke-width:1;" x1="583" x2="720.8249" y1="646.3082" y2="646.3082"/><text fill="#000000" font-family="Verdana" font-size="12" font-weight="bold" lengthAdjust="spacing" textLength="124.8249" x="587" y="638.7922">Module 1 : Archivage</text></g><!--cluster Module 2 : G?n?ration PDF--><g class="cluster" data-entity="Module 2 . G.n.ration PDF" data-source-line="16" data-uid="ent0007" id="cluster_Module 2 . G.n.ration PDF"><path d="M235.5,449.4641 L394.8771,449.4641 A3.75,3.75 0 0 1 397.3771,451.9641 L404.3771,471.8082 L556.5,471.8082 A2.5,2.5 0 0 1 559,474.3082 L559,721.4641 A2.5,2.5 0 0 1 556.5,723.9641 L235.5,723.9641 A2.5,2.5 0 0 1 233,721.4641 L233,451.9641 A2.5,2.5 0 0 1 235.5,449.4641" fill="#FFFFE0" style="stroke:#000000;stroke-width:1;"/><line style="stroke:#000000;stroke-width:1;" x1="233" x2="404.3771" y1="471.8082" y2="471.8082"/><text fill="#000000" font-family="Verdana" font-size="12" font-weight="bold" lengthAdjust="spacing" textLength="158.3771" x="237" y="464.2922">Module 2 : G&#233;n&#233;ration PDF</text></g><!--cluster Module 3 : Acceptation & Signature--><g class="cluster" data-entity="Module 3 . Acceptation . Signature" data-source-line="24" data-uid="ent0013" id="cluster_Module 3 . Acceptation . Signature"><path d="M819.5,449.4641 L1030.9335,449.4641 A3.75,3.75 0 0 1 1033.4335,451.9641 L1040.4335,471.8082 L1040.5,471.8082 A2.5,2.5 0 0 1 1043,474.3082 L1043,862.4641 A2.5,2.5 0 0 1 1040.5,864.9641 L819.5,864.9641 A2.5,2.5 0 0 1 817,862.4641 L817,451.9641 A2.5,2.5 0 0 1 819.5,449.4641" fill="#FFFFE0" style="stroke:#000000;stroke-width:1;"/><line style="stroke:#000000;stroke-width:1;" x1="817" x2="1040.4335" y1="471.8082" y2="471.8082"/><text fill="#000000" font-family="Verdana" font-size="12" font-weight="bold" lengthAdjust="spacing" textLength="210.4335" x="821" y="464.2922">Module 3 : Acceptation &amp; Signature</text></g><!--cluster Module 4 : Orchestrateur--><g class="cluster" data-entity="Module 4 . Orchestrateur" data-source-line="32" data-uid="ent0019" id="cluster_Module 4 . Orchestrateur"><path d="M37.5,260.9641 L188.7651,260.9641 A3.75,3.75 0 0 1 191.2651,263.4641 L198.2651,283.3082 L206.5,283.3082 A2.5,2.5 0 0 1 209,285.8082 L209,555.4641 A2.5,2.5 0 0 1 206.5,557.9641 L37.5,557.9641 A2.5,2.5 0 0 1 35,555.4641 L35,263.4641 A2.5,2.5 0 0 1 37.5,260.9641" fill="#ADD8E6" style="stroke:#000000;stroke-width:1;"/><line style="stroke:#000000;stroke-width:1;" x1="35" x2="198.2651" y1="283.3082" y2="283.3082"/><text fill="#000000" font-family="Verdana" font-size="12" font-weight="bold" lengthAdjust="spacing" textLength="150.2651" x="39" y="275.7922">Module 4 : Orchestrateur</text></g><!--entity ARCH--><g class="entity" data-entity="ARCH" data-source-line="11" data-uid="ent0004" id="entity_ARCH"><rect fill="#90EE90" height="36.3441" rx="2.5" ry="2.5" style="stroke:#000000;stroke-width:1;" width="177.8851" x="599" y="658.9641"/><text fill="#000000" font-family="Verdana" font-size="12" lengthAdjust="spacing" textLength="157.8851" x="609" y="681.7922">archived_documents_model</text></g><!--entity ARCH_DB--><g class="entity" data-entity="ARCH_DB" data-source-line="12" data-uid="ent0005" id="entity_ARCH_DB"><path d="M619.5,788.9641 C619.5,778.9641 687.9164,778.9641 687.9164,778.9641 C687.9164,778.9641 756.3328,778.9641 756.3328,788.9641 L756.3328,830.6523 C756.3328,840.6523 687.9164,840.6523 687.9164,840.6523 C687.9164,840.6523 619.5,840.6523 619.5,830.6523 L619.5,788.9641" fill="#90EE90" style="stroke:#000000;stroke-width:1;"/><path d="M619.5,788.9641 C619.5,798.9641 687.9164,798.9641 687.9164,798.9641 C687.9164,798.9641 756.3328,798.9641 756.3328,788.9641" fill="none" style="stroke:#000000;stroke-width:1;"/><text fill="#000000" font-family="Verdana" font-size="12" lengthAdjust="spacing" textLength="116.8328" x="629.5" y="815.7922">archived_documents</text><text fill="#000000" font-family="Verdana" font-size="12" lengthAdjust="spacing" textLength="93.2287" x="629.5" y="832.1363">document_types</text></g><!--entity GEN--><g class="entity" data-entity="GEN" data-source-line="17" data-uid="ent0008" id="entity_GEN"><rect fill="#FFFFE0" height="52.6882" rx="2.5" ry="2.5" style="stroke:#000000;stroke-width:1;" width="102.1286" x="427" y="484.4641"/><text fill="#000000" font-family="Verdana" font-size="12" lengthAdjust="spacing" textLength="82.1286" x="437" y="507.2922">Pdf_form_filler</text><text fill="#000000" font-family="Verdana" font-size="12" lengthAdjust="spacing" textLength="43.5363" x="437" y="523.6363">(library)</text></g><!--entity PY--><g class="entity" data-entity="PY" data-source-line="18" data-uid="ent0009" id="entity_PY"><rect fill="#FFFFE0" height="52.6882" rx="2.5" ry="2.5" style="stroke:#000000;stroke-width:1;" width="101.3966" x="249.5" y="650.4641"/><text fill="#000000" font-family="Verdana" font-size="12" lengthAdjust="spacing" textLength="74.2445" x="259.5" y="673.2922">pdf_forms.py</text><text fill="#000000" font-family="Verdana" font-size="12" lengthAdjust="spacing" textLength="81.3966" x="259.5" y="689.6363">(script Python)</text></g><!--entity GEN_DB--><g class="entity" data-entity="GEN_DB" data-source-line="19" data-uid="ent0010" id="entity_GEN_DB"><path d="M385.5,655.9641 C385.5,645.9641 463.7625,645.9641 463.7625,645.9641 C463.7625,645.9641 542.0249,645.9641 542.0249,655.9641 L542.0249,697.6523 C542.0249,707.6523 463.7625,707.6523 463.7625,707.6523 C463.7625,707.6523 385.5,707.6523 385.5,697.6523 L385.5,655.9641" fill="#FFFFE0" style="stroke:#000000;stroke-width:1;"/><path d="M385.5,655.9641 C385.5,665.9641 463.7625,665.9641 463.7625,665.9641 C463.7625,665.9641 542.0249,665.9641 542.0249,655.9641" fill="none" style="stroke:#000000;stroke-width:1;"/><text fill="#000000" font-family="Verdana" font-size="12" lengthAdjust="spacing" textLength="80.5926" x="395.5" y="682.7922">pdf_templates</text><text fill="#000000" font-family="Verdana" font-size="12" lengthAdjust="spacing" textLength="136.5249" x="395.5" y="699.1363">pdf_template_mappings</text></g><!--entity ACC--><g class="entity" data-entity="ACC" data-source-line="25" data-uid="ent0014" id="entity_ACC"><rect fill="#FFFFE0" height="52.6882" rx="2.5" ry="2.5" style="stroke:#000000;stroke-width:1;" width="92.2525" x="884" y="484.4641"/><text fill="#000000" font-family="Verdana" font-size="12" lengthAdjust="spacing" textLength="72.2525" x="894" y="507.2922">Acceptations</text><text fill="#000000" font-family="Verdana" font-size="12" lengthAdjust="spacing" textLength="62.1004" x="894" y="523.6363">(controller)</text></g><!--entity ACC_M--><g class="entity" data-entity="ACC_M" data-source-line="26" data-uid="ent0015" id="entity_ACC_M"><rect fill="#FFFFE0" height="36.3441" rx="2.5" ry="2.5" style="stroke:#000000;stroke-width:1;" width="133.3048" x="863.5" y="658.9641"/><text fill="#000000" font-family="Verdana" font-size="12" lengthAdjust="spacing" textLength="113.3048" x="873.5" y="681.7922">Acceptations_model</text></g><!--entity ACC_DB--><g class="entity" data-entity="ACC_DB" data-source-line="27" data-uid="ent0016" id="entity_ACC_DB"><path d="M861,780.9641 C861,770.9641 930.2144,770.9641 930.2144,770.9641 C930.2144,770.9641 999.4288,770.9641 999.4288,780.9641 L999.4288,838.9964 C999.4288,848.9964 930.2144,848.9964 930.2144,848.9964 C930.2144,848.9964 861,848.9964 861,838.9964 L861,780.9641" fill="#FFFFE0" style="stroke:#000000;stroke-width:1;"/><path d="M861,780.9641 C861,790.9641 930.2144,790.9641 930.2144,790.9641 C930.2144,790.9641 999.4288,790.9641 999.4288,780.9641" fill="none" style="stroke:#000000;stroke-width:1;"/><text fill="#000000" font-family="Verdana" font-size="12" lengthAdjust="spacing" textLength="102.0607" x="871" y="807.7922">acceptation_items</text><text fill="#000000" font-family="Verdana" font-size="12" lengthAdjust="spacing" textLength="71.3165" x="871" y="824.1363">acceptations</text><text fill="#000000" font-family="Verdana" font-size="12" lengthAdjust="spacing" textLength="118.4288" x="871" y="840.4804">acceptation_sessions</text></g><!--entity ORCH--><g class="entity" data-entity="ORCH" data-source-line="33" data-uid="ent0020" id="entity_ORCH"><rect fill="#ADD8E6" height="52.6882" rx="2.5" ry="2.5" style="stroke:#000000;stroke-width:1;" width="132.6328" x="59.5" y="295.9641"/><text fill="#000000" font-family="Verdana" font-size="12" lengthAdjust="spacing" textLength="112.6328" x="69.5" y="318.7922">DocumentWorkflow</text><text fill="#000000" font-family="Verdana" font-size="12" lengthAdjust="spacing" textLength="43.5363" x="69.5" y="335.1363">(library)</text></g><!--entity ORCH_DB--><g class="entity" data-entity="ORCH_DB" data-source-line="34" data-uid="ent0021" id="entity_ORCH_DB"><path d="M51.5,489.9641 C51.5,479.9641 121.8004,479.9641 121.8004,479.9641 C121.8004,479.9641 192.1009,479.9641 192.1009,489.9641 L192.1009,531.6523 C192.1009,541.6523 121.8004,541.6523 121.8004,541.6523 C121.8004,541.6523 51.5,541.6523 51.5,531.6523 L51.5,489.9641" fill="#ADD8E6" style="stroke:#000000;stroke-width:1;"/><path d="M51.5,489.9641 C51.5,499.9641 121.8004,499.9641 121.8004,499.9641 C121.8004,499.9641 192.1009,499.9641 192.1009,489.9641" fill="none" style="stroke:#000000;stroke-width:1;"/><text fill="#000000" font-family="Verdana" font-size="12" lengthAdjust="spacing" textLength="120.6009" x="61.5" y="516.7922">document_workflows</text><text fill="#000000" font-family="Verdana" font-size="12" lengthAdjust="spacing" textLength="118.2129" x="61.5" y="533.1363">workflow_executions</text></g><!--entity GVV_DB--><g class="entity" data-entity="GVV_DB" data-source-line="47" data-uid="ent0028" id="entity_GVV_DB"><path d="M1083,655.9641 C1083,645.9641 1168.9545,645.9641 1168.9545,645.9641 C1168.9545,645.9641 1254.9091,645.9641 1254.9091,655.9641 L1254.9091,697.6523 C1254.9091,707.6523 1168.9545,707.6523 1168.9545,707.6523 C1168.9545,707.6523 1083,707.6523 1083,697.6523 L1083,655.9641" fill="#FFFFFF" style="stroke:#000000;stroke-width:1;"/><path d="M1083,655.9641 C1083,665.9641 1168.9545,665.9641 1168.9545,665.9641 C1168.9545,665.9641 1254.9091,665.9641 1254.9091,655.9641" fill="none" style="stroke:#000000;stroke-width:1;"/><text fill="#000000" font-family="Verdana" font-size="12" lengthAdjust="spacing" textLength="122.4489" x="1093" y="682.7922">Base de donn&#233;es GVV</text><text fill="#000000" font-family="Verdana" font-size="12" lengthAdjust="spacing" textLength="151.9091" x="1093" y="699.1363">(membres, vols, sections...)</text></g><!--entity ADMIN--><g class="entity" data-entity="ADMIN" data-source-line="51" data-uid="ent0030" id="entity_ADMIN"><ellipse cx="758.0583" cy="69.9641" fill="#FFFFFF" rx="8" ry="8" style="stroke:#000000;stroke-width:1;"/><path d="M758.0583,77.9641 L758.0583,104.9641 M745.0583,85.9641 L771.0583,85.9641 M758.0583,104.9641 L745.0583,119.9641 M758.0583,104.9641 L771.0583,119.9641" fill="none" style="stroke:#000000;stroke-width:1;"/><text fill="#000000" font-family="Verdana" font-size="12" lengthAdjust="spacing" textLength="85.1166" x="715.5" y="134.7922">Administrateur</text></g><!--entity MEMBRE--><g class="entity" data-entity="MEMBRE" data-source-line="52" data-uid="ent0031" id="entity_MEMBRE"><ellipse cx="1582.0304" cy="284.4641" fill="#FFFFFF" rx="8" ry="8" style="stroke:#000000;stroke-width:1;"/><path d="M1582.0304,292.4641 L1582.0304,319.4641 M1569.0304,300.4641 L1595.0304,300.4641 M1582.0304,319.4641 L1569.0304,334.4641 M1582.0304,319.4641 L1595.0304,334.4641" fill="none" style="stroke:#000000;stroke-width:1;"/><text fill="#000000" font-family="Verdana" font-size="12" lengthAdjust="spacing" textLength="47.9763" x="1528" y="349.2922">Membre</text><text fill="#000000" font-family="Verdana" font-size="12" lengthAdjust="spacing" textLength="108.0608" x="1528" y="365.6363">(utilisateur interne)</text></g><!--entity EXT--><g class="entity" data-entity="EXT" data-source-line="53" data-uid="ent0032" id="entity_EXT"><ellipse cx="1723.9104" cy="284.4641" fill="#FFFFFF" rx="8" ry="8" style="stroke:#000000;stroke-width:1;"/><path d="M1723.9104,292.4641 L1723.9104,319.4641 M1710.9104,300.4641 L1736.9104,300.4641 M1723.9104,319.4641 L1710.9104,334.4641 M1723.9104,319.4641 L1736.9104,334.4641" fill="none" style="stroke:#000000;stroke-width:1;"/><text fill="#000000" font-family="Verdana" font-size="12" lengthAdjust="spacing" textLength="104.8208" x="1671.5" y="349.2922">Utilisateur externe</text><text fill="#000000" font-family="Verdana" font-size="12" lengthAdjust="spacing" textLength="102.5647" x="1671.5" y="365.6363">(passager, parent)</text></g><g class="entity" data-entity="GMN37" data-source-line="61" data-uid="ent0038" id="entity_GMN37"><path d="M1083.5,284.9641 L1083.5,318.4641 L192.72,322.4641 L1083.5,326.4641 L1083.5,360.3406 A0,0 0 0 0 1083.5,360.3406 L1320.6455,360.3406 A0,0 0 0 0 1320.6455,360.3406 L1320.6455,294.9641 L1310.6455,284.9641 L1083.5,284.9641 A0,0 0 0 0 1083.5,284.9641" fill="#FFFFFF" style="stroke:#000000;stroke-width:1;"/><path d="M1310.6455,284.9641 L1310.6455,294.9641 L1320.6455,294.9641 L1310.6455,284.9641" fill="#FFFFFF" style="stroke:#000000;stroke-width:1;"/><text fill="#000000" font-family="Verdana" font-size="12" lengthAdjust="spacing" textLength="186.8174" x="1089.5" y="302.7922">Configure les flux documentaires</text><text fill="#000000" font-family="Verdana" font-size="12" lengthAdjust="spacing" textLength="182.7973" x="1089.5" y="319.1363">par combinaison des 3 modules.</text><text fill="#000000" font-family="Verdana" font-size="12" lengthAdjust="spacing" textLength="174.5172" x="1089.5" y="335.4804">Les cas d'usage sont instanci&#233;s</text><text fill="#000000" font-family="Verdana" font-size="12" lengthAdjust="spacing" textLength="216.1455" x="1089.5" y="351.8245">par configuration, sans nouveau code.</text></g><!--link ARCH to ARCH_DB--><g class="link" data-entity-1="ARCH" data-entity-2="ARCH_DB" data-source-line="13" data-uid="lnk6" id="link_ARCH_ARCH_DB"><path d="M688,695.0941 C688,716.3141 688,746.8441 688,772.8041" fill="none" id="ARCH-to-ARCH_DB" style="stroke:#000000;stroke-width:1;"/><polygon fill="#000000" points="688,778.8041,692,769.8041,688,773.8041,684,769.8041,688,778.8041" style="stroke:#000000;stroke-width:1;"/></g><!--link GEN to PY--><g class="link" data-entity-1="GEN" data-entity-2="PY" data-source-line="20" data-uid="lnk11" id="link_GEN_PY"><path d="M444.35,537.7241 C430.62,548.5741 414.76,561.5441 401,573.9641 C373.43,598.8441 347.8645,624.9565 327.8645,646.0865" fill="none" id="GEN-to-PY" style="stroke:#000000;stroke-width:1;"/><polygon fill="#000000" points="323.74,650.4441,332.8318,646.6574,327.1771,646.8128,327.0217,641.1581,323.74,650.4441" style="stroke:#000000;stroke-width:1;"/><text fill="#000000" font-family="Verdana" font-size="12" lengthAdjust="spacing" textLength="60.6004" x="402" y="595.7922">appel shell</text></g><!--link GEN to GEN_DB--><g class="link" data-entity-1="GEN" data-entity-2="GEN_DB" data-source-line="21" data-uid="lnk12" id="link_GEN_GEN_DB"><path d="M475.81,537.5841 C473.31,566.8641 469.7402,608.7558 467.0902,639.8058" fill="none" id="GEN-to-GEN_DB" style="stroke:#000000;stroke-width:1;"/><polygon fill="#000000" points="466.58,645.7841,471.3308,637.1568,467.0052,640.8022,463.3598,636.4766,466.58,645.7841" style="stroke:#000000;stroke-width:1;"/></g><!--link ACC to ACC_M--><g class="link" data-entity-1="ACC" data-entity-2="ACC_M" data-source-line="28" data-uid="lnk17" id="link_ACC_ACC_M"><path d="M930,537.5841 C930,571.2841 930,623.5841 930,652.5641" fill="none" id="ACC-to-ACC_M" style="stroke:#000000;stroke-width:1;"/><polygon fill="#000000" points="930,658.5641,934,649.5641,930,653.5641,926,649.5641,930,658.5641" style="stroke:#000000;stroke-width:1;"/></g><!--link ACC_M to ACC_DB--><g class="link" data-entity-1="ACC_M" data-entity-2="ACC_DB" data-source-line="29" data-uid="lnk18" id="link_ACC_M_ACC_DB"><path d="M930,695.0941 C930,714.2341 930,739.8241 930,764.8841" fill="none" id="ACC_M-to-ACC_DB" style="stroke:#000000;stroke-width:1;"/><polygon fill="#000000" points="930,770.8841,934,761.8841,930,765.8841,926,761.8841,930,770.8841" style="stroke:#000000;stroke-width:1;"/></g><!--link ORCH to ORCH_DB--><g class="link" data-entity-1="ORCH" data-entity-2="ORCH_DB" data-source-line="35" data-uid="lnk22" id="link_ORCH_ORCH_DB"><path d="M125.45,349.0041 C124.72,383.1241 123.5588,437.4755 122.7788,473.7955" fill="none" id="ORCH-to-ORCH_DB" style="stroke:#000000;stroke-width:1;"/><polygon fill="#000000" points="122.65,479.7941,126.8423,470.8821,122.7574,474.7953,118.8442,470.7103,122.65,479.7941" style="stroke:#000000;stroke-width:1;"/></g><!--link ORCH to GEN--><g class="link" data-entity-1="ORCH" data-entity-2="GEN" data-source-line="40" data-uid="lnk23" id="link_ORCH_GEN"><path d="M174.21,349.0041 C241.43,384.6241 357.2982,446.015 424.5082,481.625" fill="none" id="ORCH-to-GEN" style="stroke:#000000;stroke-width:1;"/><polygon fill="#000000" points="429.81,484.4341,423.73,476.686,425.3918,482.0932,419.9846,483.755,429.81,484.4341" style="stroke:#000000;stroke-width:1;"/><text fill="#000000" font-family="Verdana" font-size="12" lengthAdjust="spacing" textLength="78.4086" x="352.5981" y="413.2922">g&#233;n&#232;re le PDF</text><text fill="#000000" font-family="Verdana" font-size="12" lengthAdjust="spacing" textLength="113.6048" x="335" y="429.6363">si source = template</text></g><!--link ORCH to ACC--><g class="link" data-entity-1="ORCH" data-entity-2="ACC" data-source-line="41" data-uid="lnk24" id="link_ORCH_ACC"><path d="M192.75,327.1841 C296.33,334.2041 501.33,353.1041 669,399.4641 C747.02,421.0341 827.1682,457.8413 878.3382,483.3013" fill="none" id="ORCH-to-ACC" style="stroke:#000000;stroke-width:1;"/><polygon fill="#000000" points="883.71,485.9741,877.4341,478.3837,879.2335,483.7468,873.8704,485.5461,883.71,485.9741" style="stroke:#000000;stroke-width:1;"/><text fill="#000000" font-family="Verdana" font-size="12" lengthAdjust="spacing" textLength="82.1046" x="765" y="413.2922">cr&#233;e la session</text><text fill="#000000" font-family="Verdana" font-size="12" lengthAdjust="spacing" textLength="75.6485" x="768.2281" y="429.6363">d'acceptation</text></g><!--link ORCH to ARCH--><g class="link" data-entity-1="ORCH" data-entity-2="ARCH" data-source-line="42" data-uid="lnk25" id="link_ORCH_ARCH"><path d="M192.53,325.8041 C284.21,332.2541 450.36,355.8841 559,441.4641 C616.13,486.4641 622.07,509.1241 655,573.9641 C669.33,602.1741 677.7789,632.06 682.7789,652.88" fill="none" id="ORCH-to-ARCH" style="stroke:#000000;stroke-width:1;"/><polygon fill="#000000" points="684.18,658.7141,685.9678,649.0289,683.0124,653.8523,678.189,650.897,684.18,658.7141" style="stroke:#000000;stroke-width:1;"/><text fill="#000000" font-family="Verdana" font-size="12" lengthAdjust="spacing" textLength="53.8084" x="666.6661" y="507.7922">archive le</text><text fill="#000000" font-family="Verdana" font-size="12" lengthAdjust="spacing" textLength="85.1406" x="651" y="524.1363">document final</text></g><!--link GEN to ARCH--><g class="link" data-entity-1="GEN" data-entity-2="ARCH" data-source-line="43" data-uid="lnk26" id="link_GEN_ARCH"><path d="M498.95,537.5541 C516.56,558.0941 543.11,586.8941 570,607.9641 C595.77,628.1641 622.8623,643.6739 647.1923,656.1639" fill="none" id="GEN-to-ARCH" style="stroke:#000000;stroke-width:1;"/><polygon fill="#000000" points="652.53,658.9041,646.3502,651.2354,648.0819,656.6206,642.6966,658.3523,652.53,658.9041" style="stroke:#000000;stroke-width:1;"/><text fill="#000000" font-family="Verdana" font-size="12" lengthAdjust="spacing" textLength="79.1766" x="571" y="587.7922">archive le PDF</text><text fill="#000000" font-family="Verdana" font-size="12" lengthAdjust="spacing" textLength="40.0563" x="590.5601" y="604.1363">g&#233;n&#233;r&#233;</text></g><!--link ACC to ARCH--><g class="link" data-entity-1="ACC" data-entity-2="ARCH" data-source-line="44" data-uid="lnk27" id="link_ACC_ARCH"><path d="M883.89,530.5541 C858.76,541.5941 827.64,556.7841 802,573.9641 C763.84,599.5441 729.3696,632.8294 708.3196,654.5094" fill="none" id="ACC-to-ARCH" style="stroke:#000000;stroke-width:1;"/><polygon fill="#000000" points="704.14,658.8141,713.2793,655.1434,707.623,655.2268,707.5396,649.5706,704.14,658.8141" style="stroke:#000000;stroke-width:1;"/><text fill="#000000" font-family="Verdana" font-size="12" lengthAdjust="spacing" textLength="82.8726" x="820.9461" y="587.7922">lie la signature</text><text fill="#000000" font-family="Verdana" font-size="12" lengthAdjust="spacing" textLength="118.7648" x="803" y="604.1363">au document archiv&#233;</text></g><!--link GEN to GVV_DB--><g class="link" data-entity-1="GEN" data-entity-2="GVV_DB" data-source-line="48" data-uid="lnk29" id="link_GEN_GVV_DB"><path d="M529.19,536.7441 C554.91,547.9141 586.92,559.9241 617,565.9641 C685.22,579.6541 862.02,559.1541 930,573.9641 C996.56,588.4641 1062.4265,618.5763 1109.6265,643.1163" fill="none" id="GEN-to-GVV_DB" style="stroke:#000000;stroke-width:1;"/><polygon fill="#000000" points="1114.95,645.8841,1108.8099,638.1835,1110.5138,643.5776,1105.1196,645.2815,1114.95,645.8841" style="stroke:#000000;stroke-width:1;"/><text fill="#000000" font-family="Verdana" font-size="12" lengthAdjust="spacing" textLength="42.8403" x="1044.3241" y="587.7922">collecte</text><text fill="#000000" font-family="Verdana" font-size="12" lengthAdjust="spacing" textLength="67.4885" x="1032" y="604.1363">les donn&#233;es</text></g><!--link ADMIN to ORCH--><g class="link" data-entity-1="ADMIN" data-entity-2="ORCH" data-source-line="55" data-uid="lnk33" id="link_ADMIN_ORCH"><path d="M715.06,115.4841 C606.91,153.2941 328.4037,250.6835 198.3537,296.1635" fill="none" id="ADMIN-to-ORCH" style="stroke:#000000;stroke-width:1;"/><polygon fill="#000000" points="192.69,298.1441,202.5059,298.9489,197.4097,296.4936,199.8651,291.3974,192.69,298.1441" style="stroke:#000000;stroke-width:1;"/><text fill="#000000" font-family="Verdana" font-size="12" lengthAdjust="spacing" textLength="54.1804" x="565.1361" y="181.7922">configure</text><text fill="#000000" font-family="Verdana" font-size="12" lengthAdjust="spacing" textLength="76.4526" x="554" y="198.1363">les workflows</text></g><!--link ADMIN to GEN--><g class="link" data-entity-1="ADMIN" data-entity-2="GEN" data-source-line="56" data-uid="lnk34" id="link_ADMIN_GEN"><path d="M800.8,101.7741 C923.03,106.5141 1269.34,127.1241 1338,209.9641 C1383.24,264.5441 1384.71,316.1441 1338,369.4641 C1266.8,450.7441 963.68,424.5341 856,433.4641 C803.04,437.8541 668.55,428.5441 617,441.4641 C581.77,450.2941 550.2296,465.8528 523.3796,481.4328" fill="none" id="ADMIN-to-GEN" style="stroke:#000000;stroke-width:1;"/><polygon fill="#000000" points="518.19,484.4441,527.9819,483.3869,522.5147,481.9347,523.9669,476.4674,518.19,484.4441" style="stroke:#000000;stroke-width:1;"/><text fill="#000000" font-family="Verdana" font-size="12" lengthAdjust="spacing" textLength="54.1804" x="1396.1482" y="319.2922">configure</text><text fill="#000000" font-family="Verdana" font-size="12" lengthAdjust="spacing" textLength="100.4767" x="1373" y="335.6363">les templates PDF</text></g><!--link MEMBRE to ACC--><g class="link" data-entity-1="MEMBRE" data-entity-2="ACC" data-source-line="57" data-uid="lnk35" id="link_MEMBRE_ACC"><path d="M1527.73,368.3941 C1497.05,391.4441 1456.93,417.8841 1417,433.4641 C1263.11,493.4941 1070.4571,506.2963 982.0071,509.0663" fill="none" id="MEMBRE-to-ACC" style="stroke:#000000;stroke-width:1;"/><polygon fill="#000000" points="976.01,509.2541,985.1308,512.9704,981.0075,509.0976,984.8804,504.9743,976.01,509.2541" style="stroke:#000000;stroke-width:1;"/><text fill="#000000" font-family="Verdana" font-size="12" lengthAdjust="spacing" textLength="43.5003" x="1484.734" y="413.2922">accepte</text><text fill="#000000" font-family="Verdana" font-size="12" lengthAdjust="spacing" textLength="52.9684" x="1480" y="429.6363">en un clic</text></g><!--link EXT to ACC--><g class="link" data-entity-1="EXT" data-entity-2="ACC" data-source-line="58" data-uid="lnk36" id="link_EXT_ACC"><path d="M1671.45,363.6841 C1636.44,388.2141 1588.33,417.7841 1541,433.4641 C1338.29,500.6241 1085.9299,509.5148 982.1699,510.1948" fill="none" id="EXT-to-ACC" style="stroke:#000000;stroke-width:1;"/><polygon fill="#000000" points="976.17,510.2341,985.196,514.175,981.1699,510.2013,985.1436,506.1752,976.17,510.2341" style="stroke:#000000;stroke-width:1;"/><text fill="#000000" font-family="Verdana" font-size="12" lengthAdjust="spacing" textLength="49.4523" x="1658.6704" y="413.2922">signe via</text><text fill="#000000" font-family="Verdana" font-size="12" lengthAdjust="spacing" textLength="144.7931" x="1611" y="429.6363">lien temporaire / QR code</text></g><g class="legend" data-source-line="67"><rect fill="none" height="90.2717" rx="7.5" ry="7.5" style="stroke:#000000;stroke-width:1;" width="299.8409" x="1464.4799" y="899.9641"/><text fill="#000000" font-family="Verdana" font-size="14" font-weight="bold" lengthAdjust="spacing" textLength="54.8798" x="1473.1199" y="921.93">Couleur</text><text fill="#000000" font-family="Verdana" font-size="14" font-weight="bold" lengthAdjust="spacing" textLength="28.4479" x="1535.2796" y="921.93">&#201;tat</text><rect fill="#90EE90" height="19.0679" style="stroke:none;stroke-width:1;" width="62.1598" x="1469.4799" y="926.032"/><text fill="#000000" font-family="Verdana" font-size="14" lengthAdjust="spacing" textLength="3.64" x="1469.4799" y="940.998">&#160;</text><text fill="#000000" font-family="Verdana" font-size="14" lengthAdjust="spacing" textLength="156.9114" x="1535.2796" y="940.998">Existant et op&#233;rationnel</text><rect fill="#FFFFE0" height="19.0679" style="stroke:none;stroke-width:1;" width="62.1598" x="1469.4799" y="945.0999"/><text fill="#000000" font-family="Verdana" font-size="14" lengthAdjust="spacing" textLength="3.64" x="1469.4799" y="960.0659">&#160;</text><text fill="#000000" font-family="Verdana" font-size="14" lengthAdjust="spacing" textLength="220.4011" x="1535.2796" y="960.0659">Con&#231;u, partiellement impl&#233;ment&#233;</text><rect fill="#ADD8E6" height="19.0679" style="stroke:none;stroke-width:1;" width="62.1598" x="1469.4799" y="964.1679"/><text fill="#000000" font-family="Verdana" font-size="14" lengthAdjust="spacing" textLength="7.28" x="1469.4799" y="979.1338">&#160;&#160;</text><text fill="#000000" font-family="Verdana" font-size="14" lengthAdjust="spacing" textLength="162.4554" x="1535.2796" y="979.1338">Nouveau module &#224; cr&#233;er</text><line style="stroke:#000000;stroke-width:1;" x1="1469.4799" x2="1759.3208" y1="906.9641" y2="906.9641"/><line style="stroke:#000000;stroke-width:1;" x1="1469.4799" x2="1759.3208" y1="926.032" y2="926.032"/><line style="stroke:#000000;stroke-width:1;" x1="1469.4799" x2="1759.3208" y1="945.0999" y2="945.0999"/><line style="stroke:#000000;stroke-width:1;" x1="1469.4799" x2="1759.3208" y1="964.1679" y2="964.1679"/><line style="stroke:#000000;stroke-width:1;" x1="1469.4799" x2="1759.3208" y1="983.2358" y2="983.2358"/><line style="stroke:#000000;stroke-width:1;" x1="1469.4799" x2="1469.4799" y1="906.9641" y2="983.2358"/><line style="stroke:#000000;stroke-width:1;" x1="1531.6397" x2="1531.6397" y1="906.9641" y2="983.2358"/><line style="stroke:#000000;stroke-width:1;" x1="1759.3208" x2="1759.3208" y1="906.9641" y2="983.2358"/></g><!--SRC=[XLRTRYCr5BwVfpW4YUvAkq7xSrMnbTgqMv18Kree88eYPyP9hNhiaUrf6oWIjzpp0Dn1dcFUX2VXEtPcCcswIoyYZtr-llFvEyVz95p9KbAbXJAPlrQc4awKbDkoiaQQS1wMMfAJUH1ceMNFP2RowuMpjIb6Lbj7jrSgzCyBEHUr3kyjWgXV9BrwdML11KJRTpdRvg5salxz_KywrIB8kNK0KaWwbZueQ-ZGvdK924B1xFZY8iigf1GBIOEUmrFM0_erouWwyx4jQkHzHRifzmrs1_IfLekhi71I6jWJ_hggwISHxMGnBTPn_RIqXTG_a_2qVpRwikyUdGiHn4nufDlslJJjSXgMbVI3Dihqy60hK8p-ykLUQu3DtvugvpNAEMvMfbav4IauFNpVLhMKMjlRxR9EY_cKUPlEbTRINPfdMisSSCldiR3ZevC70HwxLsjtFwoMyFMvKrMWqsMuiYP5EFrnEy266VOFigpu-a1A_tDQYgfIPf6u0P0DDRrG392fGPfTWeFKvAzm_E0mEN-8jZUiWZoNLKYiVKRdQc44Y_7_sEkv0Vsp7D9sbdbCjU-FHXzbh-_ULzDeD1r_Z3MnyPkYRqha5W-Gz0syz9vt1stefsXaf55XdBhT0OXsxyFilGLx4-WRNGVLoTgrdCrqBRSPQxloU-kkvyZ-M72JJITnW4U5TqrpktP7hUroAkzaNeUkrCc3Rkg2JTfcclIQ2PNjq66pggGfXCcb9oJ1a2bZZJxhd5XHkxJW9li7vwWVFNPfl29lQvTBUaUjVZTEJEukvQvPmKFG-a8m0dPwzzGpvmN4d8O6Sco61SsL4JfhTRrbcT0iqWneLbbthSbGgmIWbJU4KbCNEuM15xWuZzLudhw5DOY6DK_SpLKSyE-ZOrncASkPa_u5tLYDNu-XpZSo70wVfpw-k63IkywCdymEjqqU04bpsdLGXhAViwfy9lA0HsMmNvJAg8tOMDI7uwzEslDn100aa89MFbgHCa4w8nE4yT7uuEoejV-kPoRleXcSA-4zLEvUGEyEv2JFen- -pRAOhLDGX6xcQX7fPEoTD7kMIJQF3BkvnxUM9LGzlIHjm1QlKMqerohF0A1dmVSewKO9n5Emue3MnTVnS_hc3FaAcMN61hpNt0Davn4p93zgeH0ZcUlwhjC1-_lOw8uRTmR5AO-nMC3mJTiHGnXyZOqSh1GxDNE53e28bF7uno1NpMeJ8wMAAeSYXF5aR7qZeJr6ECpGTCGeiqpB1Nz4j72_VmUWI8UhmRBv0vr2zxp_HU-9tADxEhfJd3QGH95L-_uPF0PzypJlzkwv-kRlEjvjKDYKKVyArz6iUDci7lZnxDZ39vsiOISIgFahDJNGSGq9VFOV]--></g></svg>